<?xml version="1.0" standalone="no"?>
<!DOCTYPE svg PUBLIC "-//W3C//DTD SVG 20010904//EN"
 "http://www.w3.org/TR/2001/REC-SVG-20010904/DTD/svg10.dtd">
<svg version="1.0" xmlns="http://www.w3.org/2000/svg"
 width="600.000000pt" height="600.000000pt" viewBox="0 0 600.000000 600.000000"
 preserveAspectRatio="xMidYMid meet">

<g transform="translate(0.000000,600.000000) scale(0.100000,-0.100000)"
fill="#000000" stroke="none">
<path d="M2487 4512 c-18 -4 -18 -4 0 -17 15 -11 9 -11 -31 0 -27 8 -61 15
-75 14 -14 0 6 -9 45 -19 100 -26 182 -70 253 -136 89 -82 147 -154 132 -163
-9 -6 -8 -11 4 -21 13 -11 15 -10 9 6 -4 14 -1 13 15 -6 24 -30 28 -48 5 -29
-10 8 -8 0 6 -24 12 -20 26 -34 31 -31 8 5 13 -10 10 -29 -1 -5 4 -5 10 -1 9
5 10 2 6 -9 -4 -10 -2 -16 5 -14 6 1 12 -3 15 -10 8 -21 -24 -8 -51 22 -25 27
-24 26 3 -14 33 -46 39 -67 19 -55 -8 4 -10 3 -5 -2 5 -5 14 -9 20 -9 5 0 12
-6 15 -14 3 -9 0 -11 -8 -6 -9 6 -11 4 -6 -4 5 -7 10 -10 13 -7 3 2 16 1 29
-4 15 -6 26 -5 30 2 4 7 3 8 -4 4 -7 -4 -12 -3 -12 3 0 6 -7 8 -15 5 -8 -4
-15 -1 -15 4 0 6 9 9 20 7 19 -4 24 5 21 34 -2 7 2 10 8 7 5 -4 12 -2 15 3 3
5 -8 7 -24 6 -26 -2 -33 4 -70 65 -22 38 -38 75 -35 82 3 7 -1 22 -9 33 -10
12 -15 15 -16 7 0 -15 -20 -6 -20 9 0 6 5 7 10 4 20 -12 9 9 -25 51 -22 26
-33 48 -29 58 3 9 1 16 -6 16 -6 0 -8 -5 -4 -12 4 -7 -2 -5 -14 6 -12 10 -19
22 -17 26 2 4 -4 15 -14 24 -26 24 -133 87 -138 82 -3 -2 25 -20 60 -40 36
-20 71 -43 77 -51 17 -21 1 -19 -24 3 -21 17 -21 17 -2 -5 32 -38 7 -26 -46
21 -27 25 -71 55 -98 68 -27 13 -49 26 -50 31 0 4 13 1 30 -8 37 -19 64 -19
30 0 -14 8 -20 14 -15 15 6 0 48 -22 95 -49 46 -27 89 -47 95 -44 5 4 7 2 2
-2 -4 -5 10 -27 31 -49 47 -49 104 -127 79 -107 -23 18 -21 2 4 -29 14 -16 19
-19 15 -7 -9 27 2 20 20 -14 10 -21 11 -29 3 -23 -9 5 -10 2 -6 -10 5 -11 3
-15 -4 -10 -7 4 -10 1 -7 -7 3 -8 11 -13 17 -11 6 1 14 -5 18 -14 4 -11 8 -12
13 -4 5 8 9 7 13 -3 4 -12 0 -15 -14 -12 -13 3 -19 0 -16 -8 2 -7 9 -12 15
-12 5 0 14 -4 19 -9 5 -5 3 -6 -4 -2 -15 8 -17 -3 -3 -24 5 -9 26 -15 53 -15
43 -1 44 0 41 27 -2 16 0 27 5 24 5 -3 17 6 26 20 9 15 12 23 5 19 -8 -5 -11
-3 -8 6 3 8 10 14 16 14 6 0 17 6 24 14 11 11 11 13 -1 6 -9 -5 -12 -3 -9 6 3
8 10 13 15 12 6 -1 25 15 44 35 19 20 23 27 9 15 -18 -16 -30 -19 -40 -13 -13
8 -8 14 11 12 3 -1 26 20 50 46 l44 47 -47 -45 c-57 -53 -64 -43 -10 15 l37
40 -37 -34 c-21 -19 -38 -30 -38 -24 0 6 21 30 47 53 26 22 38 38 27 34 -13
-5 -10 2 11 22 17 16 26 26 21 22 -18 -14 -29 -8 -15 9 13 15 12 15 -8 2 -13
-8 -18 -16 -12 -20 6 -4 -3 -16 -21 -29 -19 -14 -28 -25 -21 -29 7 -5 0 -18
-19 -36 -18 -18 -28 -35 -25 -45 3 -9 -4 -25 -15 -35 -24 -22 -27 -9 -3 17 12
14 13 18 3 18 -11 0 -11 3 -2 12 17 17 15 33 -3 18 -9 -7 -13 -21 -10 -30 3
-9 -2 -23 -10 -30 -8 -7 -13 -21 -10 -30 3 -9 -2 -23 -10 -30 -9 -8 -13 -21
-10 -34 5 -17 4 -18 -5 -6 -10 13 -11 13 -7 -1 6 -20 -7 -42 -27 -45 -9 -1
-13 3 -9 12 3 9 0 14 -8 12 -8 -2 -14 4 -14 12 0 8 6 15 14 15 8 0 16 6 19 14
3 9 0 11 -9 6 -8 -5 -11 -4 -6 1 5 5 18 9 30 9 11 0 22 5 24 12 3 8 -3 11 -17
8 -21 -4 -21 -3 -7 18 8 12 20 22 27 22 8 0 15 6 18 14 3 9 0 11 -9 5 -21 -12
4 20 65 84 50 52 55 72 7 30 -17 -15 -20 -17 -11 -5 23 30 121 102 177 131 60
30 86 35 33 6 -46 -25 -34 -25 25 0 26 11 54 20 63 19 9 0 -7 -9 -36 -20 -29
-12 -52 -23 -50 -25 2 -2 29 6 59 17 32 13 95 25 154 29 l100 9 -110 -3 c-60
-2 -99 0 -85 4 14 4 -41 6 -123 5 l-147 -2 -38 -31 c-20 -16 -36 -35 -35 -40
1 -5 -11 -22 -27 -37 -17 -16 -30 -25 -30 -21 0 5 -8 2 -17 -5 -16 -13 -17
-12 -5 3 8 10 19 16 25 15 7 -1 11 4 9 11 -1 8 2 11 7 8 10 -6 34 18 26 26 -3
3 10 19 30 36 39 35 42 42 20 42 -21 0 -106 -81 -151 -142 l-36 -48 -38 48
c-21 26 -58 67 -84 92 -44 42 -49 44 -106 46 -33 0 -60 0 -60 -2 0 -1 21 -14
46 -29 28 -16 42 -30 35 -34 -11 -7 94 -106 114 -106 5 -1 9 -7 7 -14 -2 -8 6
-23 16 -35 11 -11 30 -40 44 -64 l25 -43 12 30 c7 16 23 39 37 52 32 30 30 37
-6 34 -16 -1 -27 1 -25 6 3 4 14 6 25 4 11 -2 24 4 30 13 6 12 9 13 10 3 0 -7
29 15 64 50 35 35 62 66 60 68 -2 2 -10 -2 -19 -9 -8 -7 -15 -10 -15 -7 0 3
15 16 33 28 21 16 27 17 18 6 -17 -21 -8 -22 27 -1 l27 16 -25 -18 c-14 -10
-57 -49 -95 -86 -66 -63 -83 -85 -140 -182 l-22 -39 -32 60 c-58 109 -176 220
-297 281 -38 19 -87 24 -137 14z m753 -7 c0 -2 -10 -9 -22 -15 -22 -11 -22
-10 -4 4 21 17 26 19 26 11z m49 1 c-2 -2 -15 -9 -29 -15 -24 -11 -24 -11 -6
3 16 13 49 24 35 12z m-459 -290 c0 -12 -90 87 -103 113 -5 9 17 -11 47 -43
31 -33 56 -64 56 -70z m292 -20 c7 4 8 2 4 -5 -4 -6 -11 -9 -16 -6 -12 8 -33
-23 -24 -37 4 -7 4 -10 -1 -6 -4 4 -15 2 -24 -5 -13 -10 -12 -6 2 16 10 15 15
33 11 39 -4 6 -3 8 4 4 6 -3 14 -1 18 6 6 9 9 9 12 0 2 -7 9 -9 14 -6z m-252
-37 c0 -6 -4 -7 -10 -4 -5 3 -10 11 -10 16 0 6 5 7 10 4 6 -3 10 -11 10 -16z
m10 -64 c0 -5 -5 -3 -10 5 -5 8 -10 20 -10 25 0 6 5 3 10 -5 5 -8 10 -19 10
-25z m173 0 c-3 -9 -8 -14 -10 -11 -3 3 -2 9 2 15 9 16 15 13 8 -4z m-31 -53
c-4 -11 -6 -11 -13 0 -7 10 -9 10 -10 -2 0 -12 -2 -12 -6 -1 -5 11 -7 11 -14
0 -7 -11 -9 -11 -9 -1 0 7 -5 10 -12 6 -6 -4 -8 -3 -5 2 3 5 21 10 40 10 25 0
33 -4 29 -14z m-74 -52 c3 -9 6 -9 12 0 5 9 9 8 13 -3 6 -16 -9 -17 -30 -4 -9
6 -11 3 -7 -10 5 -16 4 -16 -10 1 -9 11 -16 23 -16 27 0 12 34 3 38 -11z"/>
<path d="M2674 4485 c32 -20 61 -34 63 -31 6 5 -97 66 -112 66 -5 0 16 -16 49
-35z"/>
<path d="M3710 4477 c70 -24 165 -75 156 -84 -3 -4 0 -13 7 -21 10 -13 9 -14
-3 -7 -8 4 -1 -7 16 -26 55 -62 59 -75 6 -25 -28 28 -48 52 -44 55 10 8 13 31
4 31 -4 0 -13 -5 -20 -12 -9 -9 -15 -9 -24 1 -11 11 -10 13 4 8 10 -3 20 -2
23 2 7 12 -115 68 -163 76 -26 4 -16 -1 31 -19 66 -24 102 -44 93 -53 -2 -2
-27 7 -54 21 -28 14 -70 28 -94 31 -42 5 -41 5 11 -10 87 -25 169 -74 218
-131 64 -74 125 -184 103 -184 -6 0 -10 5 -10 11 0 19 -66 121 -107 165 -38
41 -127 104 -147 104 -6 0 9 -12 34 -26 140 -79 243 -256 255 -439 l4 -70 -13
75 c-29 160 -69 249 -148 332 -53 55 -116 103 -125 94 -3 -3 -1 -6 5 -6 19 0
131 -110 167 -164 58 -88 85 -182 83 -291 l-1 -70 -7 85 c-6 74 -36 198 -45
188 -2 -2 5 -35 16 -73 24 -84 24 -265 0 -287 -12 -11 -13 -10 -6 7 4 11 9 65
11 120 l2 100 -7 -90 c-9 -109 -15 -131 -54 -215 -35 -75 -107 -193 -114 -186
-3 2 15 35 39 73 56 87 97 183 104 242 l4 46 -15 -54 c-51 -178 -146 -320
-369 -548 -110 -114 -132 -144 -54 -76 l43 37 -40 -42 c-22 -23 -45 -40 -51
-38 -6 2 -25 -9 -40 -26 -16 -17 -22 -27 -14 -23 24 14 -37 -52 -148 -159 -56
-54 -102 -94 -102 -89 0 6 21 29 46 53 25 23 44 43 42 45 -2 3 -36 -26 -76
-63 -40 -37 -72 -65 -72 -62 0 3 56 61 124 130 69 68 123 127 120 129 -3 3 46
56 108 118 62 62 109 113 105 113 -4 0 -45 -37 -91 -82 -47 -46 -141 -134
-210 -197 -69 -62 -126 -117 -126 -122 0 -5 -8 -9 -17 -9 -11 1 36 54 127 142
80 77 127 126 105 108 -22 -18 -93 -84 -158 -147 -65 -63 -121 -112 -125 -108
-7 7 36 49 338 330 100 94 211 201 245 238 35 37 66 63 70 57 3 -5 -70 -85
-162 -177 -92 -92 -129 -130 -80 -84 48 45 91 79 96 77 5 -3 14 1 21 9 7 8 9
15 4 15 -5 0 21 30 57 68 75 78 111 123 162 207 50 82 99 219 94 264 -3 34 -4
33 -6 -9 -2 -35 -4 -41 -11 -25 -7 16 -9 11 -9 -22 -1 -48 -39 -143 -89 -223
-48 -76 -69 -102 -76 -92 -3 5 13 33 36 63 40 53 103 177 95 185 -3 3 -12 -14
-21 -37 -47 -118 -167 -261 -387 -464 -89 -82 -218 -204 -286 -269 -67 -66
-123 -113 -123 -105 0 9 57 70 126 137 69 67 120 122 114 122 -6 0 -13 -7 -16
-15 -4 -8 -11 -16 -18 -16 -6 -1 -66 -59 -133 -129 -68 -70 -124 -127 -125
-126 -2 1 3 -4 10 -11 8 -6 9 -14 4 -17 -6 -3 -26 12 -46 34 -54 60 -55 48 -1
-15 33 -39 45 -60 40 -72 -4 -12 4 -8 23 10 21 20 31 25 34 15 3 -8 15 -1 36
21 17 19 34 33 37 30 2 -3 -13 -23 -35 -44 -22 -22 -40 -33 -40 -25 0 9 -10 4
-27 -13 l-28 -26 -102 110 c-57 60 -103 115 -103 121 0 13 110 -95 163 -161
15 -18 30 -31 33 -29 6 7 -189 214 -239 254 -43 34 -79 44 -51 13 9 -10 13
-22 10 -27 -3 -5 10 -24 29 -42 19 -19 35 -31 35 -27 0 10 154 -145 187 -188
42 -57 51 -74 26 -52 -11 10 -27 15 -37 11 -9 -3 -16 -1 -16 6 0 6 5 8 10 5
19 -12 10 14 -17 47 -44 55 -137 148 -147 148 -6 0 23 -32 63 -71 53 -53 69
-74 59 -80 -7 -5 -10 -9 -5 -10 4 -1 12 -3 17 -4 6 -1 12 -3 15 -4 3 0 1 -11
-6 -22 -9 -17 -8 -25 5 -38 13 -12 18 -13 25 -3 6 9 12 8 26 -8 10 -11 13 -20
7 -20 -6 0 -12 6 -15 13 -2 6 -8 9 -12 5 -5 -5 0 -18 11 -30 17 -19 17 -21 2
-15 -19 7 -23 -2 -10 -19 4 -5 -3 2 -15 16 -12 14 -35 35 -50 47 -15 13 -25
23 -21 23 4 0 23 -14 43 -31 61 -54 38 -16 -35 56 -38 38 -73 66 -76 62 -4 -4
10 -23 32 -42 21 -19 36 -34 32 -35 -4 0 -23 14 -43 31 -59 52 -50 26 12 -36
32 -32 3 -10 -64 49 -124 108 -164 135 -102 69 38 -41 13 -26 -40 25 -19 17
-31 35 -28 39 4 3 2 12 -5 20 -6 7 -8 16 -4 20 8 8 -43 63 -58 63 -6 -1 5 -15
24 -32 19 -16 30 -29 23 -27 -6 2 -41 32 -78 67 -37 35 -69 61 -71 59 -3 -3
32 -42 78 -87 46 -46 74 -77 64 -69 -11 8 -62 56 -114 107 -52 51 -97 90 -100
87 -3 -3 25 -38 64 -77 38 -40 59 -64 46 -54 -12 11 -25 16 -30 12 -4 -5 18
-31 48 -59 30 -28 46 -45 35 -37 -11 8 -39 32 -62 54 -45 42 -59 40 -20 -3
l22 -26 -28 25 c-15 13 -26 29 -23 36 2 6 -1 18 -7 25 -10 10 -8 10 6 0 9 -8
20 -11 24 -7 4 3 -21 34 -55 68 -34 34 -62 67 -62 72 0 6 7 2 15 -8 8 -11 18
-16 22 -13 4 4 -11 26 -33 50 -24 26 -27 31 -8 14 28 -25 32 -26 44 -12 11 13
9 19 -10 40 -13 14 -21 27 -18 30 3 3 18 -9 32 -26 18 -21 23 -34 16 -39 -7
-5 -6 -11 5 -20 19 -16 20 -34 0 -26 -26 10 -16 -12 15 -34 33 -23 40 -17 13
12 -12 13 -13 18 -3 18 10 0 9 5 -3 18 -24 26 -21 39 3 17 11 -10 18 -25 15
-34 -5 -17 53 -87 63 -76 3 3 -10 21 -28 40 -56 58 -26 39 37 -23 88 -86 206
-193 226 -204 13 -7 15 -13 8 -22 -8 -9 -4 -19 14 -36 21 -20 26 -21 39 -8 11
12 12 18 3 27 -17 17 -27 13 -20 -6 6 -16 5 -16 -10 -4 -18 14 -24 36 -7 26
14 -9 13 8 -2 23 -9 9 -9 12 2 12 9 0 8 5 -5 20 -10 11 -23 20 -28 20 -6 0 -2
-9 8 -20 10 -11 15 -20 11 -20 -29 0 -350 315 -431 423 -53 71 -19 47 50 -36
82 -97 332 -347 348 -347 10 0 -108 114 -205 199 -21 18 -38 38 -38 44 0 6 17
-6 38 -26 21 -20 41 -37 45 -37 4 0 33 -27 65 -60 31 -33 83 -81 115 -107 32
-26 53 -49 47 -53 -17 -10 38 -63 57 -56 10 4 26 -2 40 -15 12 -13 23 -18 23
-13 0 5 -34 38 -76 74 -42 36 -123 110 -180 164 -57 55 -104 96 -104 91 0 -5
-22 12 -48 38 -27 26 -51 44 -55 41 -4 -4 -7 -2 -7 4 0 23 27 18 60 -11 19
-17 34 -35 32 -39 -1 -4 2 -7 7 -6 5 2 53 -40 108 -92 54 -53 107 -102 118
-109 11 -8 -20 25 -70 72 -49 48 -86 86 -80 87 5 0 29 -19 52 -42 24 -23 43
-37 43 -30 0 7 -4 12 -8 12 -4 0 -37 28 -73 63 -81 78 -129 119 -109 93 13
-17 13 -19 0 -14 -8 2 -28 23 -45 46 -16 22 -34 41 -39 41 -5 1 -1 -8 9 -19
10 -11 16 -23 13 -26 -3 -3 -16 7 -28 23 -13 16 -17 29 -11 31 6 2 -11 29 -39
59 -80 88 -57 86 26 -2 l76 -80 -72 83 c-40 45 -75 80 -78 77 -3 -3 -14 3 -25
12 -10 10 -22 16 -25 13 -8 -6 -72 89 -72 105 0 5 10 -1 21 -15 l21 -25 -18
32 c-10 18 -21 28 -25 22 -3 -6 -12 4 -19 21 -7 17 -15 29 -17 26 -3 -3 9 -31
26 -62 21 -39 27 -60 20 -65 -8 -5 -8 -8 0 -13 6 -4 11 -2 11 5 0 7 3 10 6 6
3 -3 2 -13 -4 -22 -8 -16 -11 -15 -26 6 -18 27 -21 43 -5 34 6 -4 -1 15 -14
41 -13 27 -32 66 -42 87 -10 21 -20 36 -22 33 -2 -2 12 -36 32 -76 20 -40 34
-75 31 -78 -3 -3 -20 25 -37 62 -17 37 -34 65 -36 62 -3 -3 15 -43 41 -90 49
-92 53 -102 34 -89 -7 4 -17 8 -22 8 -5 0 -11 6 -14 14 -3 9 0 11 8 6 7 -4 5
5 -4 24 -17 32 -30 43 -20 16 4 -8 3 -15 -1 -15 -7 0 -75 143 -75 157 1 4 16
-21 35 -57 47 -89 44 -69 -5 32 -21 46 -40 76 -40 68 -1 -8 -8 1 -15 20 -7 19
-14 30 -14 23 -1 -10 21 -75 54 -158 5 -14 5 -17 -2 -10 -19 19 -62 141 -72
206 l-10 64 4 -60 c2 -33 13 -86 24 -118 11 -32 15 -55 9 -51 -8 5 -9 1 -5
-10 4 -10 7 -21 7 -24 0 -4 5 0 11 8 8 12 9 10 4 -9 -5 -15 -4 -21 3 -17 6 4
18 -6 27 -21 l15 -28 -5 30 c-6 28 -4 27 16 -10 37 -69 81 -136 87 -131 3 3
-1 12 -8 21 -7 9 -10 18 -7 21 3 3 13 -9 22 -26 10 -19 12 -29 5 -25 -15 9
-12 2 19 -48 13 -21 26 -36 29 -33 3 3 -1 12 -8 21 -7 9 -11 18 -8 21 3 2 17
-11 32 -31 22 -29 25 -38 16 -56 -9 -16 -14 -18 -26 -8 -22 18 -16 -1 12 -38
14 -19 24 -36 22 -39 -2 -2 -23 24 -47 57 -23 34 -40 64 -37 66 2 3 10 -5 16
-17 9 -17 14 -20 20 -9 10 16 -36 74 -59 74 -9 0 -22 4 -28 8 -17 11 -17 -5 0
-23 10 -12 9 -12 -5 -2 -13 10 -17 10 -20 0 -3 -8 -7 -6 -11 6 -5 11 -3 15 5
10 8 -5 9 -2 5 10 -5 11 -3 15 5 10 7 -5 9 -2 5 9 -4 12 -1 15 14 12 13 -3 19
0 16 8 -2 7 -13 11 -25 11 -12 -1 -19 3 -16 7 3 5 10 7 15 4 5 -4 9 -2 9 4 0
6 -9 15 -20 21 -11 6 -25 20 -31 31 -8 17 -8 20 1 14 8 -5 11 -3 8 6 -3 8 -16
14 -29 14 -19 0 -30 12 -58 65 -30 59 -35 60 -16 5 3 -11 0 -8 -9 6 -31 54
-54 172 -58 298 -2 68 -1 115 4 105 5 -13 6 -7 3 16 -3 19 -2 29 1 21 5 -9 11
-4 20 18 7 17 19 30 26 29 7 -2 13 4 13 12 0 8 4 22 9 30 4 8 -5 2 -20 -15
-15 -16 -31 -29 -35 -28 -17 5 -38 -76 -33 -128 3 -30 1 -65 -4 -79 -8 -20
-10 -13 -7 35 3 51 2 55 -6 30 -6 -16 -8 -66 -5 -110 3 -60 2 -73 -6 -50 -5
17 -7 75 -5 130 3 55 3 92 0 83 -2 -10 -9 -18 -14 -18 -6 0 -8 -16 -5 -37 6
-36 5 -37 -4 -8 -5 17 -7 37 -3 45 3 8 5 21 4 28 -1 6 2 12 7 12 5 0 9 19 8
43 0 49 45 148 112 242 l43 60 -40 -45 c-23 -25 -41 -40 -41 -35 0 6 3 15 7
21 5 5 -3 -2 -16 -16 -14 -14 -28 -24 -32 -23 -18 6 -89 -89 -103 -139 -55
-187 -32 -386 65 -580 16 -32 27 -58 24 -58 -3 0 -23 36 -45 80 -51 102 -88
231 -96 335 -8 96 2 186 18 164 8 -11 9 -10 4 4 -3 10 -6 24 -6 30 -1 15 -34
-28 -60 -76 -13 -25 -21 -59 -22 -105 l-1 -67 -6 60 -6 60 -12 -34 c-10 -25
-10 -50 -3 -95 52 -323 220 -584 629 -978 200 -192 628 -560 648 -556 12 2
-14 30 -85 92 -56 48 -102 90 -102 93 0 6 90 -67 163 -134 70 -63 97 -70 42
-10 l-40 42 45 -42 46 -43 90 0 c72 0 94 4 110 18 11 9 49 42 84 72 262 221
533 476 674 635 312 350 437 617 424 907 -4 90 -5 95 -46 153 -52 75 -78 105
-89 105 -6 0 -15 11 -21 25 -6 14 -16 25 -21 25 -6 0 2 -25 16 -56 14 -30 22
-58 19 -61 -3 -3 -8 3 -12 13 -20 58 -59 135 -75 150 -11 9 -19 13 -19 8 0 -5
-10 2 -21 16 l-21 25 18 -32 c13 -24 21 -29 27 -20 6 8 7 6 3 -6 -3 -10 -2
-15 3 -12 11 6 23 -10 25 -34 3 -32 28 -91 37 -86 5 4 6 0 4 -8 -3 -7 1 -40
10 -72 21 -83 19 -215 -5 -309 -17 -69 -92 -246 -103 -246 -3 0 13 42 35 93
43 98 78 241 78 320 0 121 -56 283 -134 388 -27 36 -54 56 -126 93 -51 25
-100 46 -109 46 -9 0 -41 9 -71 20 -30 11 -64 20 -75 20 -11 0 9 -11 45 -23z
m161 -54 c13 -17 13 -17 -6 -3 -11 8 -22 16 -24 17 -2 2 0 3 6 3 6 0 17 -8 24
-17z m50 -40 c13 -16 12 -17 -3 -4 -17 13 -22 21 -14 21 2 0 10 -8 17 -17z
m-6 -33 c-6 -9 19 -32 27 -25 3 3 13 -5 24 -17 10 -12 13 -18 5 -13 -9 5 -12
3 -9 -6 3 -8 11 -13 17 -11 7 1 10 -2 6 -7 -3 -6 1 -24 10 -40 25 -49 17 -50
-11 -1 -14 25 -44 64 -67 88 -23 23 -35 42 -28 42 7 0 9 5 5 13 -5 8 -3 8 9
-2 9 -7 15 -17 12 -21z m-2042 -125 c-15 -27 -29 -43 -31 -37 -2 7 -8 10 -13
7 -5 -4 -6 1 -2 10 4 12 8 13 13 5 10 -16 21 14 14 38 -5 13 -4 14 4 3 8 -11
12 -9 22 9 6 12 14 20 16 17 2 -2 -8 -26 -23 -52z m2117 -33 c0 -15 -2 -15
-11 -2 -5 8 -17 29 -25 45 l-15 30 25 -28 c15 -15 26 -36 26 -45z m50 3 c0 -5
-9 5 -20 23 -26 42 -26 56 0 17 11 -16 20 -34 20 -40z m-5 -51 c15 -37 19 -51
10 -43 -8 9 -35 79 -30 79 2 0 12 -16 20 -36z m-2222 11 c-3 -9 -8 -14 -10
-11 -3 3 -2 9 2 15 9 16 15 13 8 -4z m9 -48 c-22 -69 -27 -75 -27 -32 0 18 3
32 6 30 3 -2 11 12 18 31 20 56 22 34 3 -29z m2213 -36 c4 -15 3 -21 -3 -17
-5 3 -13 20 -17 38 -4 18 -9 28 -11 22 -3 -6 2 -38 10 -72 8 -34 10 -62 5 -62
-5 0 -9 11 -9 23 0 13 -6 45 -14 70 -9 29 -10 47 -4 47 6 0 8 12 4 28 -4 19 0
16 13 -13 10 -22 21 -51 26 -64z m85 -1 c0 -5 -2 -10 -4 -10 -3 0 -8 5 -11 10
-3 6 -1 10 4 10 6 0 11 -4 11 -10z m-28 -35 c3 -13 1 -22 -3 -19 -9 5 -13 44
-5 44 2 0 6 -11 8 -25z m-42 -39 c0 -26 -6 -18 -14 19 -5 22 -4 26 4 15 5 -8
10 -24 10 -34z m-2260 -31 c-7 -60 -7 -60 -9 -13 -1 41 7 84 14 76 2 -2 0 -30
-5 -63z m2337 13 c-3 -8 -6 -5 -6 6 -1 11 2 17 5 13 3 -3 4 -12 1 -19z m-100
-85 c-2 -16 -4 -3 -4 27 0 30 2 43 4 28 2 -16 2 -40 0 -55z m50 35 c-3 -8 -6
-5 -6 6 -1 11 2 17 5 13 3 -3 4 -12 1 -19z m138 -63 c-3 -36 -10 -65 -14 -65
-4 0 -3 32 2 70 12 88 22 84 12 -5z m-88 43 c-3 -8 -6 -5 -6 6 -1 11 2 17 5
13 3 -3 4 -12 1 -19z m-74 -3 c4 -8 2 -17 -3 -20 -6 -4 -10 3 -10 14 0 25 6
27 13 6z m74 -47 c-3 -8 -6 -5 -6 6 -1 11 2 17 5 13 3 -3 4 -12 1 -19z m-2428
-38 c0 -9 -4 -8 -9 5 -5 11 -9 27 -9 35 0 9 4 8 9 -5 5 -11 9 -27 9 -35z
m2348 13 c-3 -10 -5 -4 -5 12 0 17 2 24 5 18 2 -7 2 -21 0 -30z m-2174 -58 c3
-37 2 -51 -3 -35 -8 25 -13 107 -6 99 2 -2 6 -31 9 -64z m2117 -25 c-15 -57
-21 -46 -7 14 6 27 13 44 15 38 2 -6 -2 -29 -8 -52z m206 4 c-4 -14 -9 -24
-12 -21 -3 2 -2 17 2 31 3 15 9 25 11 22 3 -3 2 -17 -1 -32z m-2527 -24 c0 -9
-4 -8 -9 5 -5 11 -9 27 -9 35 0 9 4 8 9 -5 5 -11 9 -27 9 -35z m2339 3 c-5
-21 -12 -40 -15 -43 -6 -6 7 61 14 73 10 17 11 4 1 -30z m-44 0 c-4 -16 -10
-32 -15 -37 -5 -5 -4 6 1 25 6 18 10 35 10 36 0 2 2 3 5 3 3 0 2 -12 -1 -27z
m69 12 c-3 -9 -8 -14 -10 -11 -3 3 -2 9 2 15 9 16 15 13 8 -4z m-103 -45 c-7
-16 -16 -30 -20 -30 -5 0 -13 -14 -19 -31 -13 -39 -14 -42 -1 -34 6 4 7 -1 3
-11 -5 -13 -8 -14 -11 -5 -3 8 -11 2 -23 -16 -10 -15 -19 -24 -19 -20 0 7 48
103 69 137 5 8 12 24 16 34 3 10 8 16 12 13 3 -4 0 -20 -7 -37z m-2061 -20 c0
-10 -3 -8 -9 5 -12 27 -12 43 0 25 5 -8 9 -22 9 -30z m2296 -14 c-22 -52 -29
-40 -8 14 9 23 19 38 20 33 2 -5 -4 -26 -12 -47z m-2410 -146 c48 -96 120
-209 176 -277 23 -29 21 -27 -10 6 -86 92 -233 349 -246 431 -5 29 -3 27 13
-15 10 -27 41 -93 67 -145z m242 158 c-3 -8 -6 -5 -6 6 -1 11 2 17 5 13 3 -3
4 -12 1 -19z m2015 -10 c-7 -7 -12 -8 -12 -2 0 6 3 14 7 17 3 4 9 5 12 2 2 -3
-1 -11 -7 -17z m-2102 -42 c-1 -6 -7 0 -15 14 -8 14 -14 19 -15 11 0 -8 -3
-12 -6 -8 -3 3 -3 11 2 18 5 9 11 7 21 -6 7 -11 13 -24 13 -29z m2020 7 c-11
-17 -11 -17 -6 0 3 10 6 24 7 30 0 9 2 9 5 0 3 -7 0 -20 -6 -30z m21 -10 c-12
-20 -14 -14 -5 12 4 9 9 14 11 11 3 -2 0 -13 -6 -23z m-40 -40 c-12 -20 -14
-14 -5 12 4 9 9 14 11 11 3 -2 0 -13 -6 -23z m-2003 -8 c-3 -3 -9 2 -12 12 -6
14 -5 15 5 6 7 -7 10 -15 7 -18z m2023 2 c-10 -9 -11 -8 -5 6 3 10 9 15 12 12
3 -3 0 -11 -7 -18z m-1997 -3 c3 -8 2 -12 -4 -9 -6 3 -10 10 -10 16 0 14 7 11
14 -7z m36 -25 c0 -6 -4 -7 -10 -4 -5 3 -10 11 -10 16 0 6 5 7 10 4 6 -3 10
-11 10 -16z m1923 8 c7 3 10 4 7 0 -3 -3 -8 -5 -11 -4 -3 1 -14 -5 -24 -13
-17 -14 -17 -14 -4 8 8 12 15 18 17 12 2 -6 9 -7 15 -3z m-1951 -22 c3 0 10
-4 15 -9 4 -5 3 -6 -4 -3 -6 4 -13 3 -15 -3 -2 -6 -9 -1 -16 11 -11 17 -11 20
0 13 7 -5 16 -9 20 -9z m1989 -8 c-10 -9 -11 -8 -5 6 3 10 9 15 12 12 3 -3 0
-11 -7 -18z m-112 -19 c-13 -18 -38 -52 -57 -76 -19 -23 -32 -45 -29 -48 3 -3
29 24 59 59 29 36 55 64 57 62 2 -2 -15 -27 -38 -54 -26 -31 -40 -55 -35 -63
4 -7 3 -10 -1 -5 -9 8 -75 -50 -75 -66 0 -5 7 -4 15 3 27 22 16 -6 -12 -31
-15 -13 -21 -16 -14 -6 26 33 3 29 -33 -6 -20 -20 -36 -32 -36 -28 0 4 25 31
55 61 30 30 55 59 55 64 0 6 -70 -59 -155 -144 -84 -85 -152 -156 -149 -159 2
-3 38 28 79 69 41 41 75 72 75 68 0 -12 -181 -183 -194 -183 -16 0 -48 -26
-41 -33 2 -3 13 1 22 9 10 7 -11 -18 -47 -55 -95 -100 -47 -66 72 50 57 55
110 104 118 108 8 5 -48 -52 -125 -127 -77 -74 -142 -133 -145 -130 -2 2 2 8
10 14 12 7 12 11 2 17 -9 6 2 20 38 51 27 23 50 47 50 53 0 6 -9 3 -20 -7 -39
-36 -19 -4 34 52 37 39 51 60 43 66 -8 5 -4 7 8 5 11 -2 19 2 18 9 -2 7 3 10
11 7 13 -5 306 289 306 307 0 16 -35 -12 -58 -45 -12 -17 -51 -60 -88 -96
l-67 -65 74 85 c41 47 94 109 118 138 26 31 47 48 51 42 4 -7 18 3 34 24 34
45 45 47 15 4z m66 -45 c-34 -53 -45 -67 -45 -60 0 10 51 87 57 87 3 0 -3 -12
-12 -27z m-1941 1 c3 -8 2 -12 -4 -9 -6 3 -10 10 -10 16 0 14 7 11 14 -7z
m1911 -3 c-3 -6 -11 -11 -17 -11 -6 0 -6 6 2 15 14 17 26 13 15 -4z m-1966
-111 c29 -41 90 -118 135 -170 74 -87 82 -108 14 -35 -47 49 -206 262 -223
297 -18 38 -27 49 74 -92z m136 85 c1 -14 -2 -22 -5 -19 -3 3 -5 16 -5 29 -1
14 2 22 5 19 3 -3 5 -16 5 -29z m206 -6 c3 7 21 -11 42 -40 21 -28 36 -53 33
-56 -3 -3 -9 2 -12 11 -5 14 -9 15 -15 4 -7 -10 -14 -7 -29 12 -26 33 -25 52
0 21 11 -13 20 -19 20 -13 0 15 -39 59 -40 44 0 -20 -18 -4 -36 31 l-15 32 24
-29 c14 -16 26 -23 28 -17z m-250 14 c13 -16 12 -17 -3 -4 -10 7 -18 15 -18
17 0 8 8 3 21 -13z m184 -17 c8 -13 13 -31 9 -40 -8 -22 -26 -9 -19 14 3 10 1
21 -5 25 -10 6 -14 25 -5 25 2 0 11 -11 20 -24z m48 -28 c34 -47 34 -58 0 -27
-26 23 -26 23 3 -16 56 -74 79 -111 61 -96 -25 20 -21 3 8 -35 26 -34 32 -50
16 -39 -11 6 -71 93 -71 102 0 3 8 -1 17 -8 15 -12 16 -12 8 1 -4 8 -22 32
-38 53 -16 20 -30 47 -32 60 -1 12 -6 31 -10 42 -10 24 1 14 38 -37z m-242 15
c13 -16 12 -17 -3 -4 -10 7 -18 15 -18 17 0 8 8 3 21 -13z m-50 -30 c13 -16
12 -17 -3 -4 -10 7 -18 15 -18 17 0 8 8 3 21 -13z m80 -10 c13 -16 12 -17 -3
-4 -10 7 -18 15 -18 17 0 8 8 3 21 -13z m1819 -16 c0 -2 -12 -14 -27 -28 l-28
-24 24 28 c23 25 31 32 31 24z m-1690 -17 c0 -5 -2 -10 -4 -10 -3 0 -8 5 -11
10 -3 6 -1 10 4 10 6 0 11 -4 11 -10z m183 -13 c8 7 37 -16 37 -30 0 -5 -9 -2
-20 8 -35 32 -22 2 17 -37 20 -21 34 -40 31 -43 -7 -7 -98 91 -98 106 0 8 3 9
13 0 8 -6 17 -8 20 -4z m-303 -101 c0 -5 -1 -7 -3 -5 -2 2 -22 29 -46 59 l-43
55 46 -50 c25 -27 46 -54 46 -59z m150 30 c0 -5 -10 4 -22 20 -33 44 -36 53
-6 19 15 -16 28 -34 28 -39z m1713 50 c-10 -13 -19 -23 -21 -21 -5 5 22 45 31
45 4 0 0 -11 -10 -24z m-53 11 c0 -2 -17 -19 -37 -38 -21 -19 -29 -23 -18 -9
11 13 25 30 30 37 9 11 25 18 25 10z m-1779 -34 c13 -16 12 -17 -3 -4 -10 7
-18 15 -18 17 0 8 8 3 21 -13z m1769 -6 c0 -2 -10 -12 -22 -23 l-23 -19 19 23
c18 21 26 27 26 19z m-171 -56 c-19 -21 -41 -42 -49 -46 -8 -3 5 14 30 39 54
56 64 60 19 7z m191 36 c0 -2 -10 -12 -22 -23 l-23 -19 19 23 c18 21 26 27 26
19z m-1585 -19 c5 4 5 1 1 -6 -6 -10 -11 -10 -22 -1 -8 6 -14 14 -14 16 0 3 6
0 13 -6 8 -6 18 -7 22 -3z m1456 -31 c-10 -9 -11 -8 -5 6 3 10 9 15 12 12 3
-3 0 -11 -7 -18z m69 19 c0 -2 -8 -10 -17 -17 -16 -13 -17 -12 -4 4 13 16 21
21 21 13z m-1670 -171 c74 -77 83 -89 31 -40 -40 39 -95 97 -124 130 -61 72
-44 56 93 -90z m311 128 c13 -16 12 -17 -3 -4 -17 13 -22 21 -14 21 2 0 10 -8
17 -17z m1239 13 c0 -2 -8 -10 -17 -17 -16 -13 -17 -12 -4 4 13 16 21 21 21
13z m30 -41 c-24 -25 -46 -45 -49 -45 -3 0 15 20 39 45 24 25 46 45 49 45 3 0
-15 -20 -39 -45z m-1450 10 c13 -14 21 -25 18 -25 -2 0 -15 11 -28 25 -13 14
-21 25 -18 25 2 0 15 -11 28 -25z m285 -15 c21 -22 37 -40 34 -40 -3 0 -23 18
-44 40 -21 22 -37 40 -34 40 3 0 23 -18 44 -40z m-255 20 c0 -5 -2 -10 -4 -10
-3 0 -8 5 -11 10 -3 6 -1 10 4 10 6 0 11 -4 11 -10z m1395 -10 c-10 -11 -20
-18 -23 -15 -7 6 18 35 31 35 5 0 2 -9 -8 -20z m-104 -23 l-24 -22 19 27 c10
14 21 24 23 22 3 -3 -6 -15 -18 -27z m169 30 c0 -2 -10 -12 -22 -23 l-23 -19
19 23 c18 21 26 27 26 19z m-148 -48 c-46 -44 -50 -68 -4 -28 15 13 -4 -9 -43
-49 -38 -39 -74 -72 -80 -72 -5 0 11 20 38 45 50 48 58 61 30 51 -10 -3 7 16
37 44 66 59 83 66 22 9z m-1363 -2 l25 -32 -32 29 c-33 31 -37 36 -24 35 4 0
18 -14 31 -32z m21 18 c11 -13 10 -14 -4 -9 -9 3 -16 10 -16 15 0 13 6 11 20
-6z m-120 -20 c13 -14 21 -25 18 -25 -2 0 -15 11 -28 25 -13 14 -21 25 -18 25
2 0 15 -11 28 -25z m1670 11 c0 -2 -8 -10 -17 -17 -16 -13 -17 -12 -4 4 13 16
21 21 21 13z m-110 -9 c0 -2 -10 -12 -22 -23 l-23 -19 19 23 c18 21 26 27 26
19z m-1380 -52 l25 -30 -33 29 c-17 17 -32 34 -32 40 0 6 3 6 8 1 4 -6 18 -23
32 -40z m1430 41 c0 -2 -8 -10 -17 -17 -16 -13 -17 -12 -4 4 13 16 21 21 21
13z m-105 -14 c-6 -5 -39 -35 -75 -67 l-65 -59 65 67 c36 36 69 66 75 67 5 0
5 -3 0 -8z m-1281 -41 c-2 -3 -12 3 -22 13 -16 17 -16 18 5 5 12 -7 20 -15 17
-18z m875 -80 c-56 -53 -107 -98 -113 -99 -6 -2 36 43 94 101 58 58 109 102
113 100 5 -3 -37 -49 -94 -102z m-476 42 c15 -17 15 -22 4 -31 -11 -9 -20 -5
-43 19 -24 26 -25 30 -7 20 12 -6 27 -19 32 -29 6 -9 11 -13 11 -7 0 5 -17 27
-37 49 -35 36 -35 37 -8 19 17 -12 38 -30 48 -40z m-358 -128 c17 -16 22 -23
10 -17 -11 6 -56 48 -100 94 l-80 83 70 -66 c39 -36 84 -78 100 -94z m1065
110 c-43 -44 -50 -50 -50 -41 0 6 84 86 90 86 2 0 -16 -20 -40 -45z m170 31
c0 -2 -8 -10 -17 -17 -16 -13 -17 -12 -4 4 13 16 21 21 21 13z m-45 -16 c-3
-5 -12 -10 -18 -10 -7 0 -6 4 3 10 19 12 23 12 15 0z m-35 -23 c0 -2 -10 -12
-22 -23 l-23 -19 19 23 c18 21 26 27 26 19z m30 -11 c0 -2 -8 -10 -17 -17 -16
-13 -17 -12 -4 4 13 16 21 21 21 13z m10 -66 c-41 -38 -71 -70 -66 -70 6 0 21
10 35 22 l26 22 -25 -26 c-58 -62 -315 -286 -318 -277 -2 5 -8 7 -13 3 -27
-16 0 12 79 82 48 43 69 59 47 36 -21 -23 -35 -42 -29 -42 13 0 86 75 79 81
-2 3 12 21 33 40 l37 34 -29 -32 c-17 -18 -25 -33 -20 -33 17 0 65 56 57 65
-5 4 -3 5 3 2 7 -4 17 0 24 8 7 8 9 15 4 15 -5 1 25 32 66 70 41 39 77 70 80
70 3 -1 -29 -32 -70 -70z m-140 46 c0 -2 -44 -43 -97 -92 -53 -49 -91 -79 -84
-66 7 14 8 22 1 22 -5 0 -10 -4 -10 -9 0 -5 -8 -12 -17 -15 -20 -8 -28 -16 77
79 l65 59 -55 -57 c-75 -79 -51 -71 40 13 75 69 80 73 80 66z m-194 -55 c-33
-33 -44 -50 -34 -54 7 -3 3 -4 -10 -4 -20 1 -16 7 30 54 29 29 55 53 57 53 3
0 -16 -22 -43 -49z m214 36 c0 -2 -15 -14 -32 -27 l-33 -23 24 26 c21 23 41
35 41 24z m100 0 c0 -2 -10 -12 -22 -23 l-23 -19 19 23 c18 21 26 27 26 19z
m-1230 -32 c13 -14 21 -25 18 -25 -2 0 -15 11 -28 25 -13 14 -21 25 -18 25 2
0 15 -11 28 -25z m1170 12 c0 -2 -10 -12 -22 -23 l-23 -19 19 23 c18 21 26 27
26 19z m-996 -56 c-3 -3 -15 6 -27 18 l-22 24 27 -19 c14 -10 24 -21 22 -23z
m513 -18 c-34 -35 -45 -25 -12 12 15 15 29 24 33 21 3 -4 -6 -19 -21 -33z m44
19 c-12 -22 -41 -48 -41 -36 0 8 40 54 47 54 2 0 -1 -8 -6 -18z m314 -2 c-10
-11 -23 -20 -29 -20 -6 0 0 9 14 20 32 25 38 25 15 0z m-905 0 c0 -5 -2 -10
-4 -10 -3 0 -8 5 -11 10 -3 6 -1 10 4 10 6 0 11 -4 11 -10z m320 -5 c19 -23 8
-26 -19 -4 -16 13 -18 19 -8 19 8 0 20 -7 27 -15z m-184 -17 l19 -21 -27 18
c-29 18 -34 25 -20 25 5 0 17 -10 28 -22z m-146 -23 c19 -19 32 -35 29 -35 -3
0 -20 16 -39 35 -19 19 -32 35 -29 35 3 0 20 -16 39 -35z m161 -22 c8 -9 -5
-2 -28 17 -24 18 -43 35 -43 37 0 7 56 -35 71 -54z m769 54 c0 -2 -10 -12 -22
-23 l-23 -19 19 23 c18 21 26 27 26 19z m-877 -25 c15 -16 15 -19 2 -19 -8 0
-13 3 -10 5 3 3 0 11 -6 19 -17 20 -5 16 14 -5z m606 -19 c-13 -17 -12 -17 6
-2 19 15 55 22 55 10 0 -9 -43 -51 -53 -51 -6 0 0 12 14 28 l24 27 -27 -24
c-15 -13 -25 -27 -23 -31 3 -4 -1 -13 -8 -18 -10 -8 -13 -6 -14 8 -1 11 3 22
8 25 5 4 7 11 3 16 -3 5 0 17 7 25 17 20 25 8 8 -13z m185 -4 c-16 -17 -56
-54 -89 -81 -41 -35 -33 -25 25 30 87 83 117 107 64 51z m-84 17 c0 -2 -8 -10
-17 -17 -16 -13 -17 -12 -4 4 13 16 21 21 21 13z m-559 -23 c13 -16 12 -17 -3
-4 -10 7 -18 15 -18 17 0 8 8 3 21 -13z m709 1 c-8 -8 -23 -20 -34 -25 -13 -7
-9 -1 9 15 34 29 43 33 25 10z m-754 -26 l19 -23 -25 20 c-14 11 -27 21 -29
22 -2 2 0 3 6 3 5 0 18 -10 29 -22z m104 7 c10 -12 10 -15 -1 -15 -7 0 5 -19
26 -42 l40 -43 -42 39 c-23 22 -40 44 -36 49 3 5 -1 13 -8 18 -8 5 -9 9 -3 9
6 0 17 -7 24 -15z m-199 -42 l34 -36 -31 21 c-36 24 -61 52 -47 52 5 0 25 -16
44 -37z m135 20 c-4 -9 -1 -20 6 -25 10 -7 9 -9 -2 -5 -16 4 -23 47 -8 47 6 0
7 -8 4 -17z m544 14 c0 -2 -10 -12 -22 -23 l-23 -19 19 23 c18 21 26 27 26 19z
m100 0 c0 -2 -15 -16 -32 -33 l-33 -29 29 33 c28 30 36 37 36 29z m-270 -22
c-7 -9 -15 -13 -19 -10 -3 3 1 10 9 15 21 14 24 12 10 -5z m-3 -42 c-51 -51
-65 -82 -19 -42 l27 24 -24 -28 c-16 -17 -28 -24 -34 -18 -6 6 8 30 38 66 26
30 50 53 53 50 3 -3 -16 -26 -41 -52z m193 54 c0 -2 -17 -19 -37 -38 l-38 -34
34 38 c33 34 41 42 41 34z m-660 -32 c13 -14 21 -25 18 -25 -2 0 -15 11 -28
25 -13 14 -21 25 -18 25 2 0 15 -11 28 -25z m51 8 c13 -16 12 -17 -3 -4 -17
13 -22 21 -14 21 2 0 10 -8 17 -17z m529 13 c0 -2 -8 -10 -17 -17 -16 -13 -17
-12 -4 4 13 16 21 21 21 13z m-67 -31 c-3 -9 -8 -14 -10 -11 -3 3 -2 9 2 15 9
16 15 13 8 -4z m71 1 c-3 -8 -13 -17 -22 -21 -13 -5 -13 -2 3 15 21 24 26 25
19 6z m-407 -21 c8 -9 13 -18 11 -21 -3 -2 -13 5 -23 16 -21 23 -11 27 12 5z
m-232 -15 c10 -11 16 -20 13 -20 -3 0 -13 9 -23 20 -10 11 -16 20 -13 20 3 0
13 -9 23 -20z m131 -46 c38 -33 68 -52 75 -48 7 4 9 3 6 -3 -8 -12 58 -77 70
-70 5 3 10 -4 10 -15 2 -20 2 -20 -20 -1 -12 10 -58 50 -102 88 -107 92 -121
105 -111 105 5 0 37 -25 72 -56z m228 2 c25 -30 40 -53 32 -52 -20 3 -47 27
-41 36 3 5 0 14 -7 22 -23 23 -41 48 -35 48 2 0 25 -24 51 -54z m-54 29 c11
-13 10 -14 -4 -9 -9 3 -16 10 -16 15 0 13 6 11 20 -6z m260 12 c0 -2 -10 -12
-22 -23 l-23 -19 19 23 c18 21 26 27 26 19z m70 0 c0 -2 -12 -14 -27 -28 l-28
-24 24 28 c23 25 31 32 31 24z m-439 -24 c13 -16 12 -17 -3 -4 -17 13 -22 21
-14 21 2 0 10 -8 17 -17z m389 14 c0 -2 -17 -19 -37 -38 l-38 -34 34 38 c33
34 41 42 41 34z m-275 -47 c10 -11 16 -20 13 -20 -3 0 -13 9 -23 20 -10 11
-16 20 -13 20 3 0 13 -9 23 -20z m285 -13 c0 -2 -10 -12 -22 -23 l-23 -19 19
23 c18 21 26 27 26 19z m-260 -52 c13 -14 21 -25 18 -25 -2 0 -15 11 -28 25
-13 14 -21 25 -18 25 2 0 15 -11 28 -25z m200 21 c0 -2 -8 -10 -17 -17 -16
-13 -17 -12 -4 4 13 16 21 21 21 13z m120 1 c0 -2 -15 -16 -32 -33 l-33 -29
29 33 c28 30 36 37 36 29z m-230 -42 c13 -14 21 -25 18 -25 -2 0 -15 11 -28
25 -13 14 -21 25 -18 25 2 0 15 -11 28 -25z m120 22 c0 -2 -12 -14 -27 -28
l-28 -24 24 28 c23 25 31 32 31 24z m130 0 c0 -2 -15 -16 -32 -33 l-33 -29 29
33 c28 30 36 37 36 29z m20 -10 c0 -2 -10 -12 -22 -23 l-23 -19 19 23 c18 21
26 27 26 19z m-345 -37 c10 -11 16 -20 13 -20 -3 0 -13 9 -23 20 -10 11 -16
20 -13 20 3 0 13 -9 23 -20z m55 -117 c0 -8 -55 35 -80 63 -14 16 -2 9 28 -16
28 -24 52 -45 52 -47z"/>
<path d="M3750 3455 c-7 -9 -11 -18 -8 -20 3 -3 11 1 18 10 7 9 11 18 8 20 -3
3 -11 -1 -18 -10z"/>
<path d="M3395 3050 c-10 -11 -13 -20 -8 -20 13 0 38 29 31 35 -3 3 -13 -4
-23 -15z"/>
<path d="M3254 2625 c-21 -19 -34 -34 -29 -34 12 0 79 59 73 65 -3 2 -22 -12
-44 -31z"/>
<path d="M2850 2616 c0 -2 8 -10 18 -17 15 -13 16 -12 3 4 -13 16 -21 21 -21
13z"/>
<path d="M3515 4484 c48 -8 115 -9 115 -2 0 5 -30 7 -67 7 -38 -1 -59 -3 -48
-5z"/>
<path d="M2278 4473 c12 -2 32 -2 45 0 12 2 2 4 -23 4 -25 0 -35 -2 -22 -4z"/>
<path d="M2405 4470 c109 -17 200 -73 329 -205 47 -47 58 -56 35 -26 -96 123
-283 243 -376 240 -36 -1 -35 -2 12 -9z"/>
<path d="M3415 4466 c-23 -7 -50 -18 -60 -25 -20 -12 -20 -12 0 -5 11 4 47 15
80 25 33 10 51 18 40 18 -11 0 -38 -6 -60 -13z"/>
<path d="M2228 4463 c7 -3 16 -2 19 1 4 3 -2 6 -13 5 -11 0 -14 -3 -6 -6z"/>
<path d="M3548 4463 c7 -3 16 -2 19 1 4 3 -2 6 -13 5 -11 0 -14 -3 -6 -6z"/>
<path d="M2119 4428 c-96 -47 -186 -143 -244 -261 -41 -82 -46 -99 -37 -123
l10 -29 7 30 c4 17 16 47 27 68 10 20 16 37 13 37 -2 0 -13 -17 -24 -37 -11
-21 -20 -32 -21 -25 0 23 42 96 49 84 4 -7 14 1 25 21 l18 32 -21 -25 c-16
-19 -21 -21 -21 -9 0 26 106 155 156 190 25 17 71 42 102 55 31 13 50 23 41
24 -9 0 -45 -14 -80 -32z"/>
<path d="M2343 4453 c9 -2 25 -2 35 0 9 3 1 5 -18 5 -19 0 -27 -2 -17 -5z"/>
<path d="M3258 4444 c-33 -17 -37 -28 -7 -19 16 6 20 4 14 -6 -5 -8 -4 -11 1
-6 5 5 9 14 9 20 0 5 6 12 14 15 8 3 11 0 7 -7 -5 -7 -1 -9 9 -4 13 5 14 7 3
14 -17 11 -18 11 -50 -7z"/>
<path d="M3468 4453 c7 -3 16 -2 19 1 4 3 -2 6 -13 5 -11 0 -14 -3 -6 -6z"/>
<path d="M2218 4433 c7 -3 16 -2 19 1 4 3 -2 6 -13 5 -11 0 -14 -3 -6 -6z"/>
<path d="M2465 4430 c27 -12 43 -12 25 0 -8 5 -22 9 -30 9 -10 0 -8 -3 5 -9z"/>
<path d="M3608 4433 c7 -3 16 -2 19 1 4 3 -2 6 -13 5 -11 0 -14 -3 -6 -6z"/>
<path d="M3665 4420 c27 -12 43 -12 25 0 -8 5 -22 9 -30 9 -10 0 -8 -3 5 -9z"/>
<path d="M2268 4413 c6 -2 18 -2 25 0 6 3 1 5 -13 5 -14 0 -19 -2 -12 -5z"/>
<path d="M2428 4413 c7 -3 16 -2 19 1 4 3 -2 6 -13 5 -11 0 -14 -3 -6 -6z"/>
<path d="M3478 4413 c6 -2 18 -2 25 0 6 3 1 5 -13 5 -14 0 -19 -2 -12 -5z"/>
<path d="M3608 4383 c7 -3 16 -2 19 1 4 3 -2 6 -13 5 -11 0 -14 -3 -6 -6z"/>
<path d="M3688 4354 c29 -14 85 -55 125 -92 59 -54 60 -50 2 13 -23 24 -102
82 -128 93 -53 23 -52 12 1 -14z"/>
<path d="M2610 4357 c0 -2 15 -16 33 -33 l32 -29 -29 33 c-28 30 -36 37 -36
29z"/>
<path d="M2755 4340 c3 -5 8 -10 11 -10 2 0 4 5 4 10 0 6 -5 10 -11 10 -5 0
-7 -4 -4 -10z"/>
<path d="M1999 4303 l-34 -38 38 34 c34 33 42 41 34 41 -2 0 -19 -17 -38 -37z"/>
<path d="M2069 4323 c-13 -16 -12 -17 4 -4 9 7 17 15 17 17 0 8 -8 3 -21 -13z"/>
<path d="M3124 4308 l-19 -23 23 19 c12 11 22 21 22 23 0 8 -8 2 -26 -19z"/>
<path d="M3325 4305 c-19 -15 -19 -15 10 -13 17 2 29 7 28 13 -3 16 -18 16
-38 0z"/>
<path d="M2000 4263 c-23 -27 -46 -57 -52 -68 -5 -11 1 -6 14 10 13 17 38 47
57 68 18 20 31 37 28 37 -3 0 -24 -21 -47 -47z"/>
<path d="M2810 4282 c12 -18 25 -31 28 -27 3 3 -7 18 -23 33 l-28 27 23 -33z"/>
<path d="M3717 4285 c5 -15 3 -16 -18 -6 -22 11 -23 11 -6 -3 11 -8 25 -12 32
-9 8 2 35 -17 61 -44 34 -34 41 -39 25 -16 -26 39 -104 103 -94 78z"/>
<path d="M3239 4273 c-13 -16 -12 -17 4 -4 16 13 21 21 13 21 -2 0 -10 -8 -17
-17z"/>
<path d="M4100 4261 c0 -6 4 -13 10 -16 6 -3 7 1 4 9 -7 18 -14 21 -14 7z"/>
<path d="M1949 4243 c-13 -16 -12 -17 4 -4 9 7 17 15 17 17 0 8 -8 3 -21 -13z"/>
<path d="M2009 4227 c-36 -45 -46 -68 -15 -32 25 29 50 65 44 65 -2 0 -15 -15
-29 -33z"/>
<path d="M3810 4235 c13 -14 26 -25 28 -25 3 0 -5 11 -18 25 -13 14 -26 25
-28 25 -3 0 5 -11 18 -25z"/>
<path d="M2740 4215 c13 -14 26 -25 28 -25 3 0 -5 11 -18 25 -13 14 -26 25
-28 25 -3 0 5 -11 18 -25z"/>
<path d="M3037 4203 c-11 -11 -8 -20 7 -20 8 0 12 6 9 14 -6 15 -7 15 -16 6z"/>
<path d="M3770 4196 c0 -2 8 -10 18 -17 15 -13 16 -12 3 4 -13 16 -21 21 -21
13z"/>
<path d="M1915 4139 c-9 -17 -15 -33 -13 -35 3 -2 12 12 21 31 21 43 13 47 -8
4z"/>
<path d="M2740 4166 c0 -2 8 -10 18 -17 15 -13 16 -12 3 4 -13 16 -21 21 -21
13z"/>
<path d="M2800 4140 c12 -16 24 -30 26 -30 3 0 -4 14 -16 30 -12 17 -24 30
-26 30 -3 0 4 -13 16 -30z"/>
<path d="M3906 4147 c3 -10 9 -15 12 -12 3 3 0 11 -7 18 -10 9 -11 8 -5 -6z"/>
<path d="M3012 4130 c-9 -15 -10 -26 -3 -38 6 -9 11 -12 11 -7 1 6 3 22 5 38
4 32 3 33 -13 7z"/>
<path d="M3857 4115 c9 -19 18 -33 21 -31 4 5 -26 66 -33 66 -3 0 3 -16 12
-35z"/>
<path d="M3880 4131 c0 -6 4 -13 10 -16 6 -3 7 1 4 9 -7 18 -14 21 -14 7z"/>
<path d="M3792 4115 c4 -6 12 -22 17 -36 6 -15 10 -18 10 -8 1 9 -7 25 -16 36
-10 10 -15 14 -11 8z"/>
<path d="M3901 4100 c0 -3 8 -30 19 -60 10 -30 19 -46 19 -35 0 17 -36 109
-38 95z"/>
<path d="M3059 4063 c-13 -16 -12 -17 4 -4 16 13 21 21 13 21 -2 0 -10 -8 -17
-17z"/>
<path d="M1965 4059 c-4 -6 -5 -12 -2 -15 2 -3 7 2 10 11 7 17 1 20 -8 4z"/>
<path d="M3853 4029 c0 -40 1 -41 9 -17 6 17 6 34 0 44 -7 12 -9 5 -9 -27z"/>
<path d="M3886 4050 c3 -14 9 -27 13 -30 3 -3 8 -14 9 -25 6 -30 12 -32 12 -4
0 13 -9 38 -21 54 -19 28 -20 28 -13 5z"/>
<path d="M1712 4020 c0 -14 2 -19 5 -12 2 6 2 18 0 25 -3 6 -5 1 -5 -13z"/>
<path d="M1901 4003 c-6 -21 -10 -78 -9 -128 l1 -90 7 110 c4 61 10 118 15
128 4 9 5 17 2 17 -4 0 -11 -17 -16 -37z"/>
<path d="M1926 4015 c-3 -9 -6 -24 -5 -33 0 -9 5 -4 10 12 9 32 6 48 -5 21z"/>
<path d="M3771 4004 c0 -11 3 -14 6 -6 3 7 2 16 -1 19 -3 4 -6 -2 -5 -13z"/>
<path d="M3832 3995 c0 -16 2 -22 5 -12 2 9 2 23 0 30 -3 6 -5 -1 -5 -18z"/>
<path d="M1941 3984 c0 -11 3 -14 6 -6 3 7 2 16 -1 19 -3 4 -6 -2 -5 -13z"/>
<path d="M3872 3980 c0 -14 2 -19 5 -12 2 6 2 18 0 25 -3 6 -5 1 -5 -13z"/>
<path d="M3812 3965 c0 -16 2 -22 5 -12 2 9 2 23 0 30 -3 6 -5 -1 -5 -18z"/>
<path d="M1913 3925 c0 -22 2 -30 4 -17 2 12 2 30 0 40 -3 9 -5 -1 -4 -23z"/>
<path d="M3902 3940 c0 -14 2 -19 5 -12 2 6 2 18 0 25 -3 6 -5 1 -5 -13z"/>
<path d="M3918 3914 c-2 -25 0 -48 4 -50 5 -3 8 18 8 45 0 64 -7 66 -12 5z"/>
<path d="M1959 3933 c0 -10 -2 -44 -4 -76 -2 -31 1 -59 5 -62 4 -3 8 31 9 75
1 44 -1 80 -4 80 -3 0 -5 -8 -6 -17z"/>
<path d="M1932 3920 c0 -14 2 -19 5 -12 2 6 2 18 0 25 -3 6 -5 1 -5 -13z"/>
<path d="M3813 3890 c0 -25 2 -35 4 -22 2 12 2 32 0 45 -2 12 -4 2 -4 -23z"/>
<path d="M1982 3890 c0 -14 2 -19 5 -12 2 6 2 18 0 25 -3 6 -5 1 -5 -13z"/>
<path d="M3890 3860 c0 -42 -45 -167 -86 -237 -62 -107 -248 -328 -390 -462
-54 -52 -90 -89 -79 -83 34 18 287 282 368 383 84 107 134 191 170 289 27 71
40 150 26 150 -5 0 -9 -18 -9 -40z"/>
<path d="M3781 3864 c0 -11 3 -14 6 -6 3 7 2 16 -1 19 -3 4 -6 -2 -5 -13z"/>
<path d="M3832 3850 c0 -19 2 -27 5 -17 2 9 2 25 0 35 -3 9 -5 1 -5 -18z"/>
<path d="M2032 3840 c0 -14 2 -19 5 -12 2 6 2 18 0 25 -3 6 -5 1 -5 -13z"/>
<path d="M1910 3816 c0 -19 -4 -37 -9 -40 -5 -3 -2 -33 7 -68 8 -34 18 -56 20
-49 3 10 9 7 18 -10 18 -33 17 -7 -1 38 -8 19 -15 45 -16 57 -1 19 -2 19 -9
-4 -5 -15 -6 1 -3 43 3 37 3 67 -1 67 -3 0 -6 -15 -6 -34z"/>
<path d="M3796 3809 c-8 -42 0 -50 9 -9 4 17 5 34 2 36 -2 3 -7 -10 -11 -27z"/>
<path d="M3751 3814 c0 -11 3 -14 6 -6 3 7 2 16 -1 19 -3 4 -6 -2 -5 -13z"/>
<path d="M3716 3795 c-9 -26 -7 -32 5 -12 6 10 9 21 6 23 -2 3 -7 -2 -11 -11z"/>
<path d="M3821 3794 c0 -11 3 -14 6 -6 3 7 2 16 -1 19 -3 4 -6 -2 -5 -13z"/>
<path d="M2001 3764 c0 -11 3 -14 6 -6 3 7 2 16 -1 19 -3 4 -6 -2 -5 -13z"/>
<path d="M3736 3765 c-9 -26 -7 -32 5 -12 6 10 9 21 6 23 -2 3 -7 -2 -11 -11z"/>
<path d="M1981 3754 c0 -11 3 -14 6 -6 3 7 2 16 -1 19 -3 4 -6 -2 -5 -13z"/>
<path d="M2031 3745 c1 -19 18 -51 18 -35 0 8 -4 22 -9 30 -5 8 -9 11 -9 5z"/>
<path d="M3762 3720 c-18 -29 -15 -38 4 -12 9 13 14 25 12 27 -2 2 -9 -5 -16
-15z"/>
<path d="M3673 3689 c-12 -21 -17 -37 -12 -33 11 6 42 64 37 69 -2 2 -13 -14
-25 -36z"/>
<path d="M2090 3715 c0 -5 5 -17 10 -25 5 -8 10 -10 10 -5 0 6 -5 17 -10 25
-5 8 -10 11 -10 5z"/>
<path d="M3715 3709 c-4 -6 -5 -12 -2 -15 2 -3 7 2 10 11 7 17 1 20 -8 4z"/>
<path d="M2021 3699 c-1 -8 6 -24 15 -35 15 -19 15 -19 6 1 -5 11 -12 27 -15
35 -5 13 -6 13 -6 -1z"/>
<path d="M2076 3687 c3 -10 9 -15 12 -12 3 3 0 11 -7 18 -10 9 -11 8 -5 -6z"/>
<path d="M3599 3633 c-13 -16 -12 -17 4 -4 9 7 17 15 17 17 0 8 -8 3 -21 -13z"/>
<path d="M3705 3624 c-9 -15 -12 -23 -6 -20 11 7 35 46 28 46 -3 0 -12 -12
-22 -26z"/>
<path d="M3615 3598 c-16 -24 -74 -91 -129 -149 -99 -103 -98 -103 14 11 63
64 123 130 133 148 26 46 15 39 -18 -10z"/>
<path d="M3549 3613 c-13 -16 -12 -17 4 -4 16 13 21 21 13 21 -2 0 -10 -8 -17
-17z"/>
<path d="M2170 3590 c6 -11 13 -20 16 -20 2 0 0 9 -6 20 -6 11 -13 20 -16 20
-2 0 0 -9 6 -20z"/>
<path d="M3545 3563 c-21 -27 -28 -39 -16 -28 23 19 66 75 59 75 -2 0 -21 -21
-43 -47z"/>
<path d="M3504 3558 l-19 -23 23 19 c21 18 27 26 19 26 -2 0 -12 -10 -23 -22z"/>
<path d="M3450 3376 l-194 -201 168 165 c139 137 239 244 224 239 -1 -1 -91
-92 -198 -203z"/>
<path d="M1990 3558 c0 -9 5 -20 10 -23 13 -8 13 5 0 25 -8 13 -10 13 -10 -2z"/>
<path d="M2225 3546 c10 -14 19 -26 22 -26 7 0 -17 39 -28 46 -6 3 -3 -5 6
-20z"/>
<path d="M2205 3530 c9 -16 18 -30 21 -30 2 0 -2 14 -11 30 -9 17 -18 30 -21
30 -2 0 2 -13 11 -30z"/>
<path d="M3538 3427 c-71 -72 -128 -134 -128 -136 0 -9 219 211 241 242 11 15
19 27 17 26 -2 -1 -60 -60 -130 -132z"/>
<path d="M3444 3488 l-29 -33 33 29 c30 28 37 36 29 36 -2 0 -16 -15 -33 -32z"/>
<path d="M2250 3504 c0 -9 142 -183 169 -208 15 -14 18 -22 10 -32 -7 -8 -7
-14 1 -19 5 -3 10 -3 10 1 0 5 17 -8 38 -27 l37 -34 -35 38 c-19 21 -33 40
-30 43 3 2 -11 21 -31 42 -20 20 -66 74 -103 120 -36 45 -66 79 -66 76z"/>
<path d="M2050 3491 c0 -6 4 -13 10 -16 6 -3 7 1 4 9 -7 18 -14 21 -14 7z"/>
<path d="M3464 3468 l-29 -33 33 29 c30 28 37 36 29 36 -2 0 -16 -15 -33 -32z"/>
<path d="M2315 3450 c10 -11 20 -20 23 -20 3 0 -3 9 -13 20 -10 11 -20 20 -23
20 -3 0 3 -9 13 -20z"/>
<path d="M2450 3435 c13 -14 26 -25 28 -25 3 0 -5 11 -18 25 -13 14 -26 25
-28 25 -3 0 5 -11 18 -25z"/>
<path d="M3399 3403 l-24 -28 28 24 c25 23 32 31 24 31 -2 0 -14 -12 -28 -27z"/>
<path d="M2340 3417 c0 -2 15 -16 33 -33 l32 -29 -29 33 c-28 30 -36 37 -36
29z"/>
<path d="M2092 3388 c2 -6 12 -12 22 -14 9 -1 16 2 14 8 -2 6 -12 12 -22 14
-9 1 -16 -2 -14 -8z"/>
<path d="M3324 3358 l-19 -23 23 19 c12 11 22 21 22 23 0 8 -8 2 -26 -19z"/>
<path d="M2510 3366 c0 -2 8 -10 18 -17 15 -13 16 -12 3 4 -13 16 -21 21 -21
13z"/>
<path d="M3274 3348 l-19 -23 23 19 c21 18 27 26 19 26 -2 0 -12 -10 -23 -22z"/>
<path d="M2560 3305 c13 -14 26 -25 28 -25 3 0 -5 11 -18 25 -13 14 -26 25
-28 25 -3 0 5 -11 18 -25z"/>
<path d="M3319 3313 c-13 -16 -12 -17 4 -4 16 13 21 21 13 21 -2 0 -10 -8 -17
-17z"/>
<path d="M3349 3313 c-13 -16 -12 -17 4 -4 16 13 21 21 13 21 -2 0 -10 -8 -17
-17z"/>
<path d="M2193 3300 c-2 -24 13 -35 20 -16 3 8 0 19 -7 25 -8 7 -12 5 -13 -9z"/>
<path d="M3159 3273 c-13 -16 -12 -17 4 -4 9 7 17 15 17 17 0 8 -8 3 -21 -13z"/>
<path d="M3090 3163 l-125 -128 128 125 c118 116 132 130 124 130 -1 0 -58
-57 -127 -127z"/>
<path d="M3375 3270 c-10 -11 -13 -20 -8 -20 13 0 38 29 31 35 -3 3 -13 -4
-23 -15z"/>
<path d="M2600 3266 c0 -2 8 -10 18 -17 15 -13 16 -12 3 4 -13 16 -21 21 -21
13z"/>
<path d="M3185 3178 l-90 -93 93 90 c85 83 97 95 89 95 -1 0 -43 -42 -92 -92z"/>
<path d="M2510 3215 c19 -19 36 -35 39 -35 3 0 -10 16 -29 35 -19 19 -36 35
-39 35 -3 0 10 -16 29 -35z"/>
<path d="M2580 3246 c0 -2 8 -10 18 -17 15 -13 16 -12 3 4 -13 16 -21 21 -21
13z"/>
<path d="M3080 3113 l-125 -128 128 125 c118 116 132 130 124 130 -1 0 -58
-57 -127 -127z"/>
<path d="M3329 3223 c-13 -16 -12 -17 4 -4 9 7 17 15 17 17 0 8 -8 3 -21 -13z"/>
<path d="M2740 3205 c13 -14 26 -25 28 -25 3 0 -5 11 -18 25 -13 14 -26 25
-28 25 -3 0 5 -11 18 -25z"/>
<path d="M3115 3070 l-160 -161 -100 105 c-58 60 -69 69 -26 22 41 -44 85 -95
99 -112 l25 -31 65 66 c168 170 265 271 261 271 -2 0 -76 -72 -164 -160z"/>
<path d="M2563 3203 c9 -14 107 -97 107 -90 0 2 -26 26 -57 53 -31 27 -54 44
-50 37z"/>
<path d="M3045 3158 l-50 -53 53 50 c48 46 57 55 49 55 -1 0 -25 -24 -52 -52z"/>
<path d="M3285 3180 c-10 -11 -22 -17 -28 -13 -6 4 -7 1 -2 -6 5 -9 13 -7 31
10 13 12 24 24 24 26 0 7 -8 2 -25 -17z"/>
<path d="M2800 3186 c0 -2 8 -10 18 -17 15 -13 16 -12 3 4 -13 16 -21 21 -21
13z"/>
<path d="M2602 3135 c26 -27 49 -47 51 -45 2 3 -20 25 -47 50 l-51 44 47 -49z"/>
<path d="M2555 3150 c10 -11 20 -20 23 -20 3 0 -3 9 -13 20 -10 11 -20 20 -23
20 -3 0 3 -9 13 -20z"/>
<path d="M2315 3150 c3 -5 8 -10 11 -10 2 0 4 5 4 10 0 6 -5 10 -11 10 -5 0
-7 -4 -4 -10z"/>
<path d="M2810 3136 c0 -2 8 -10 18 -17 15 -13 16 -12 3 4 -13 16 -21 21 -21
13z"/>
<path d="M2700 3127 c0 -2 15 -16 33 -33 l32 -29 -29 33 c-28 30 -36 37 -36
29z"/>
<path d="M2780 3126 c0 -2 8 -10 18 -17 15 -13 16 -12 3 4 -13 16 -21 21 -21
13z"/>
<path d="M2605 3100 c10 -11 20 -20 23 -20 3 0 -3 9 -13 20 -10 11 -20 20 -23
20 -3 0 3 -9 13 -20z"/>
<path d="M2710 3075 c19 -19 36 -35 39 -35 3 0 -10 16 -29 35 -19 19 -36 35
-39 35 -3 0 10 -16 29 -35z"/>
<path d="M2830 3077 c0 -2 15 -16 33 -33 l32 -29 -29 33 c-28 30 -36 37 -36
29z"/>
<path d="M3286 3010 c-39 -38 -66 -70 -61 -70 6 0 42 32 80 70 38 39 66 70 61
70 -5 0 -40 -31 -80 -70z"/>
<path d="M3020 3013 l-55 -58 58 55 c53 50 62 60 54 60 -1 0 -27 -26 -57 -57z"/>
<path d="M2464 3031 c21 -23 26 -26 26 -11 0 5 -10 15 -22 21 -23 12 -23 12
-4 -10z"/>
<path d="M2795 2990 c21 -22 41 -40 44 -40 3 0 -13 18 -34 40 -21 22 -41 40
-44 40 -3 0 13 -18 34 -40z"/>
<path d="M2920 3016 c0 -2 8 -10 18 -17 15 -13 16 -12 3 4 -13 16 -21 21 -21
13z"/>
<path d="M2864 2960 c69 -77 85 -92 49 -45 -17 22 -46 54 -64 70 -20 17 -13 7
15 -25z"/>
<path d="M2890 3007 c0 -2 15 -16 33 -33 l32 -29 -29 33 c-28 30 -36 37 -36
29z"/>
<path d="M2610 2895 c30 -30 59 -55 64 -55 6 0 -14 25 -44 55 -30 30 -59 55
-64 55 -6 0 14 -25 44 -55z"/>
<path d="M2570 2902 c0 -12 19 -26 26 -19 2 2 -2 10 -11 17 -9 8 -15 8 -15 2z"/>
<path d="M2790 2815 c0 -7 37 -45 61 -63 14 -10 18 -10 23 3 3 9 2 13 -3 10
-5 -3 -12 -1 -16 4 -8 14 -65 54 -65 46z"/>
</g>
</svg>
