<svg xmlns="http://www.w3.org/2000/svg" viewBox="0 0 600 600">
<g transform="translate(0.000000,600.000000) scale(0.100000,-0.100000)"
fill="#000000" stroke="none">
<path d="M2487 4512 c-18 -4 -18 -4 0 -17 15 -11 9 -11 -31 0 -27 8 -61 15
-75 14 -14 0 6 -9 45 -19 100 -26 182 -70 253 -136 89 -82 147 -154 132 -163
-9 -6 -8 -11 4 -21 13 -11 15 -10 9 6 -4 14 -1 13 15 -6 24 -30 28 -48 5 -29
-10 8 -8 0 6 -24 12 -20 26 -34 31 -31 8 5 13 -10 10 -29 -1 -5 4 -5 10 -1 9
5 10 2 6 -9 -4 -10 -2 -16 5 -14 6 1 12 -3 15 -10 8 -21 -24 -8 -51 22 -25 27
-24 26 3 -14 33 -46 39 -67 19 -55 -8 4 -10 3 -5 -2 5 -5 14 -9 20 -9 5 0 12
-6 15 -14 3 -9 0 -11 -8 -6 -9 6 -11 4 -6 -4 5 -7 10 -10 13 -7 3 2 16 1 29
-4 15 -6 26 -5 30 2 4 7 3 8 -4 4 -7 -4 -12 -3 -12 3 0 6 -7 8 -15 5 -8 -4
-15 -1 -15 4 0 6 9 9 20 7 19 -4 24 5 21 34 -2 7 2 10 8 7 5 -4 12 -2 15 3 3
5 -8 7 -24 6 -26 -2 -33 4 -70 65 -22 38 -38 75 -35 82 3 7 -1 22 -9 33 -10
12 -15 15 -16 7 0 -15 -20 -6 -20 9 0 6 5 7 10 4 20 -12 9 9 -25 51 -22 26
-33 48 -29 58 3 9 1 16 -6 16 -6 0 -8 -5 -4 -12 4 -7 -2 -5 -14 6 -12 10 -19
22 -17 26 2 4 -4 15 -14 24 -26 24 -133 87 -138 82 -3 -2 25 -20 60 -40 36
-20 71 -43 77 -51 17 -21 1 -19 -24 3 -21 17 -21 17 -2 -5 32 -38 7 -26 -46
21 -27 25 -71 55 -98 68 -27 13 -49 26 -50 31 0 4 13 1 30 -8 37 -19 64 -19
30 0 -14 8 -20 14 -15 15 6 0 48 -22 95 -49 46 -27 89 -47 95 -44 5 4 7 2 2
-2 -4 -5 10 -27 31 -49 47 -49 104 -127 79 -107 -23 18 -21 2 4 -29 14 -16 19
-19 15 -7 -9 27 2 20 20 -14 10 -21 11 -29 3 -23 -9 5 -10 2 -6 -10 5 -11 3
-15 -4 -10 -7 4 -10 1 -7 -7 3 -8 11 -13 17 -11 6 1 14 -5 18 -14 4 -11 8 -12
13 -4 5 8 9 7 13 -3 4 -12 0 -15 -14 -12 -13 3 -19 0 -16 -8 2 -7 9 -12 15
-12 5 0 14 -4 19 -9 5 -5 3 -6 -4 -2 -15 8 -17 -3 -3 -24 5 -9 26 -15 53 -15
43 -1 44 0 41 27 -2 16 0 27 5 24 5 -3 17 6 26 20 9 15 12 23 5 19 -8 -5 -11
-3 -8 6 3 8 10 14 16 14 6 0 17 6 24 14 11 11 11 13 -1 6 -9 -5 -12 -3 -9 6 3
8 10 13 15 12 6 -1 25 15 44 35 19 20 23 27 9 15 -18 -16 -30 -19 -40 -13 -13
8 -8 14 11 12 3 -1 26 20 50 46 l44 47 -47 -45 c-57 -53 -64 -43 -10 15 l37
40 -37 -34 c-21 -19 -38 -30 -38 -24 0 6 21 30 47 53 26 22 38 38 27 34 -13
-5 -10 2 11 22 17 16 26 26 21 22 -18 -14 -29 -8 -15 9 13 15 12 15 -8 2 -13
-8 -18 -16 -12 -20 6 -4 -3 -16 -21 -29 -19 -14 -28 -25 -21 -29 7 -5 0 -18
-19 -36 -18 -18 -28 -35 -25 -45 3 -9 -4 -25 -15 -35 -24 -22 -27 -9 -3 17 12
14 13 18 3 18 -11 0 -11 3 -2 12 17 17 15 33 -3 18 -9 -7 -13 -21 -10 -30 3
-9 -2 -23 -10 -30 -8 -7 -13 -21 -10 -30 3 -9 -2 -23 -10 -30 -9 -8 -13 -21
-10 -34 5 -17 4 -18 -5 -6 -10 13 -11 13 -7 -1 6 -20 -7 -42 -27 -45 -9 -1
-13 3 -9 12 3 9 0 14 -8 12 -8 -2 -14 4 -14 12 0 8 6 15 14 15 8 0 16 6 19 14
3 9 0 11 -9 6 -8 -5 -11 -4 -6 1 5 5 18 9 30 9 11 0 22 5 24 12 3 8 -3 11 -17
8 -21 -4 -21 -3 -7 18 8 12 20 22 27 22 8 0 15 6 18 14 3 9 0 11 -9 5 -21 -12
4 20 65 84 50 52 55 72 7 30 -17 -15 -20 -17 -11 -5 23 30 121 102 177 131 60
30 86 35 33 6 -46 -25 -34 -25 25 0 26 11 54 20 63 19 9 0 -7 -9 -36 -20 -29
-12 -52 -23 -50 -25 2 -2 29 6 59 17 32 13 95 25 154 29 l100 9 -110 -3 c-60
-2 -99 0 -85 4 14 4 -41 6 -123 5 l-147 -2 -38 -31 c-20 -16 -36 -35 -35 -40
1 -5 -11 -22 -27 -37 -17 -16 -30 -25 -30 -21 0 5 -8 2 -17 -5 -16 -13 -17
-12 -5 3 8 10 19 16 25 15 7 -1 11 4 9 11 -1 8 2 11 7 8 10 -6 34 18 26 26 -3
3 10 19 30 36 39 35 42 42 20 42 -21 0 -106 -81 -151 -142 l-36 -48 -38 48
c-21 26 -58 67 -84 92 -44 42 -49 44 -106 46 -33 0 -60 0 -60 -2 0 -1 21 -14
46 -29 28 -16 42 -30 35 -34 -11 -7 94 -106 114 -106 5 -1 9 -7 7 -14 -2 -8 6
-23 16 -35 11 -11 30 -40 44 -64 l25 -43 12 30 c7 16 23 39 37 52 32 30 30 37
-6 34 -16 -1 -27 1 -25 6 3 4 14 6 25 4 11 -2 24 4 30 13 6 12 9 13 10 3 0 -7
29 15 64 50 35 35 62 66 60 68 -2 2 -10 -2 -19 -9 -8 -7 -15 -10 -15 -7 0 3
15 16 33 28 21 16 27 17 18 6 -17 -21 -8 -22 27 -1 l27 16 -25 -18 c-14 -10
-57 -49 -95 -86 -66 -63 -83 -85 -140 -182 l-22 -39 -32 60 c-58 109 -176 220
-297 281 -38 19 -87 24 -137 14z"/>
</g>
</svg>
