<svg version="1.1" id="Layer_1" xmlns="http://www.w3.org/2000/svg" xmlns:xlink="http://www.w3.org/1999/xlink" x="0px" y="0px"
	 width="100%" viewBox="0 0 257 230" enable-background="new 0 0 257 230" xml:space="preserve">
<path fill="#215F61" opacity="1.000000" stroke="none" 
	d="
M1.000000,222.000000 
	C1.000000,151.645767 1.000000,81.291542 1.000500,10.103796 
	C4.000667,6.513518 7.000333,3.756759 10.000000,1.000000 
	C89.354225,1.000000 168.708450,1.000000 248.884979,1.025831 
	C252.471527,3.701111 255.235764,6.350560 258.000000,9.000004 
	C258.000000,80.020897 258.000000,151.041794 257.664703,222.613556 
	C254.333618,228.436371 249.621948,229.767273 243.844299,229.760391 
	C167.638428,229.669647 91.432350,229.657242 15.226564,229.776825 
	C8.774346,229.786957 3.914412,227.943573 1.000000,222.000000 
M137.468552,50.966030 
	C134.836853,54.057339 132.205154,57.148651 129.462051,60.370811 
	C128.514526,59.023933 127.788193,57.907909 126.979774,56.854900 
	C115.860344,42.371395 101.198540,35.294491 83.016846,37.562298 
	C64.096252,39.922260 50.840855,50.481972 44.010696,68.371773 
	C38.315617,83.288536 41.626842,97.542297 48.579483,111.197784 
	C57.784737,129.277588 71.094635,144.214218 85.986015,157.631516 
	C99.906380,170.173904 114.614403,181.842102 128.846420,193.786530 
	C152.298889,177.076279 173.604050,159.967712 191.198029,138.878860 
	C199.025177,129.496933 205.823547,119.076271 211.860443,108.430481 
	C218.275620,97.117653 220.035080,84.593559 216.431046,71.724472 
	C207.048553,38.221924 165.022995,24.896778 137.468552,50.966030 
z"/>
<path fill="#FDFEFE" opacity="1.000000" stroke="none" 
	d="
M1.000000,222.491058 
	C3.914412,227.943573 8.774346,229.786957 15.226564,229.776825 
	C91.432350,229.657242 167.638428,229.669647 243.844299,229.760391 
	C249.621948,229.767273 254.333618,228.436371 257.664703,223.082214 
	C258.000000,225.661972 258.000000,228.323929 258.000000,230.984955 
	C172.333328,230.984009 86.666664,230.984009 1.000000,230.984009 
	C1.000000,228.306030 1.000000,225.644073 1.000000,222.491058 
z"/>
<path fill="#F0F4F4" opacity="1.000000" stroke="none" 
	d="
M9.508951,1.000000 
	C7.000333,3.756759 4.000667,6.513518 1.000500,9.635139 
	C1.000000,7.082645 1.000000,4.165290 1.000000,1.000000 
	C3.670005,1.000000 6.343954,1.000000 9.508951,1.000000 
z"/>
<path fill="#F4F7F7" opacity="1.000000" stroke="none" 
	d="
M258.000000,8.505271 
	C255.235764,6.350560 252.471527,3.701111 249.353638,1.025831 
	C251.911011,1.000000 254.822021,1.000000 258.000000,1.000000 
	C258.000000,3.333536 258.000000,5.672035 258.000000,8.505271 
z"/>
<path fill="#F7F9F9" opacity="1.000000" stroke="none" 
	d="
M137.720978,50.714859 
	C165.022995,24.896778 207.048553,38.221924 216.431046,71.724472 
	C220.035080,84.593559 218.275620,97.117653 211.860443,108.430481 
	C205.823547,119.076271 199.025177,129.496933 191.198029,138.878860 
	C173.604050,159.967712 152.298889,177.076279 128.846420,193.786530 
	C114.614403,181.842102 99.906380,170.173904 85.986015,157.631516 
	C71.094635,144.214218 57.784737,129.277588 48.579483,111.197784 
	C41.626842,97.542297 38.315617,83.288536 44.010696,68.371773 
	C50.840855,50.481972 64.096252,39.922260 83.016846,37.562298 
	C101.198540,35.294491 115.860344,42.371395 126.979774,56.854900 
	C127.788193,57.907909 128.514526,59.023933 129.462051,60.370811 
	C132.205154,57.148651 134.836853,54.057339 137.720978,50.714859 
M120.011421,59.991741 
	C120.011421,59.991741 120.116936,59.987900 120.244667,59.271057 
	C119.853233,59.140903 119.461792,59.010746 119.159882,58.948002 
	C119.159882,58.948002 119.231453,58.861774 119.390060,58.162167 
	C107.722984,44.685097 90.104324,40.258083 73.671715,46.674595 
	C57.265644,53.080738 47.276825,68.348282 48.011036,86.148979 
	C48.457043,96.962105 52.959366,106.410797 58.515408,115.395737 
	C69.137787,132.573685 83.134331,146.831650 98.216873,160.010010 
	C108.308243,168.827347 118.963013,176.999893 129.103806,185.247986 
	C149.581711,172.104263 178.646149,145.940414 193.036530,126.133759 
	C199.502609,117.233948 205.333908,107.358696 209.017624,97.055267 
	C217.527222,73.253731 202.611557,49.060448 177.786224,44.363171 
	C163.676575,41.693443 146.524460,48.271786 139.929611,58.975342 
	C139.929611,58.975342 139.988937,58.900269 139.297089,58.958084 
	C139.007721,59.318123 138.718369,59.678162 137.958969,60.443249 
	C135.286835,63.980957 132.614685,67.518661 129.875214,71.145508 
	C126.724411,67.612404 123.880928,64.423920 121.116875,60.515301 
	C120.747322,60.305603 120.377777,60.095905 120.011421,59.991741 
z"/>
<path fill="#266262" opacity="1.000000" stroke="none" 
	d="
M139.861038,58.908600 
	C146.524460,48.271786 163.676575,41.693443 177.786224,44.363171 
	C202.611557,49.060448 217.527222,73.253731 209.017624,97.055267 
	C205.333908,107.358696 199.502609,117.233948 193.036530,126.133759 
	C178.646149,145.940414 149.581711,172.104263 129.103806,185.247986 
	C118.963013,176.999893 108.308243,168.827347 98.216873,160.010010 
	C83.134331,146.831650 69.137787,132.573685 58.515408,115.395737 
	C52.959366,106.410797 48.457043,96.962105 48.011036,86.148979 
	C47.276825,68.348282 57.265644,53.080738 73.671715,46.674595 
	C90.104324,40.258083 107.722984,44.685097 118.966492,58.699150 
	C110.917030,54.767029 102.875809,52.458202 93.848091,52.857388 
	C75.733154,53.658401 59.482399,70.152786 58.878017,88.237961 
	C58.435299,101.485672 63.616100,112.558662 70.849876,122.939064 
	C85.906853,144.545731 105.816994,161.150101 126.766525,176.667252 
	C129.445541,178.651566 131.243500,177.544525 133.384628,175.974655 
	C150.895981,163.135391 167.518738,149.240707 181.115250,132.239334 
	C187.087051,124.772049 191.961334,116.328163 196.601578,107.923363 
	C201.025772,99.909851 201.349152,90.811134 199.517410,82.100960 
	C194.346008,57.510136 166.080200,45.191105 144.095505,57.536194 
	C142.827103,58.248451 141.278976,58.462624 139.861038,58.908600 
z"/>
<path fill="#F6B959" opacity="1.000000" stroke="none" 
	d="
M139.895325,58.941971 
	C141.278976,58.462624 142.827103,58.248451 144.095505,57.536194 
	C166.080200,45.191105 194.346008,57.510136 199.517410,82.100960 
	C201.349152,90.811134 201.025772,99.909851 196.601578,107.923363 
	C191.961334,116.328163 187.087051,124.772049 181.115250,132.239334 
	C167.518738,149.240707 150.895981,163.135391 133.384628,175.974655 
	C131.243500,177.544525 129.445541,178.651566 126.766525,176.667252 
	C105.816994,161.150101 85.906853,144.545731 70.849876,122.939064 
	C63.616100,112.558662 58.435299,101.485672 58.878017,88.237961 
	C59.482399,70.152786 75.733154,53.658401 93.848091,52.857388 
	C102.875809,52.458202 110.917030,54.767029 118.887192,59.048958 
	C119.231453,58.861774 119.159882,58.948002 119.040009,59.244606 
	C119.319061,59.690105 119.718002,59.839001 120.116936,59.987900 
	C120.116936,59.987900 120.011421,59.991741 120.030518,60.248798 
	C120.378899,60.749046 120.708176,60.992241 121.037453,61.235435 
	C123.880928,64.423920 126.724411,67.612404 129.875214,71.145508 
	C132.614685,67.518661 135.286835,63.980957 138.610840,60.314423 
	C139.504791,59.757153 139.746857,59.328709 139.988922,58.900269 
	C139.988937,58.900269 139.929611,58.975342 139.895325,58.941971 
M195.185669,90.537933 
	C194.412170,74.775978 185.093979,62.832310 170.660736,59.040699 
	C163.982559,57.286346 157.431000,57.752293 151.052399,60.233074 
	C139.808929,64.605904 133.474335,73.431679 129.894913,85.106010 
	C127.798637,80.790901 126.398216,77.018784 124.278770,73.706787 
	C116.983315,62.306377 106.331932,56.683262 92.928749,58.325134 
	C79.420265,59.979897 70.027290,67.770874 65.574821,80.824150 
	C61.783138,91.940224 64.802223,102.331444 70.347351,111.942146 
	C84.827827,137.039444 106.668724,154.951340 129.541229,172.130692 
	C151.130875,156.211456 171.089661,139.189301 185.843491,116.897247 
	C190.928528,109.214081 194.922791,100.976776 195.185669,90.537933 
z"/>
<path fill="#266262" opacity="1.000000" stroke="none" 
	d="
M120.180801,59.629478 
	C119.718002,59.839001 119.319061,59.690105 118.995239,59.210899 
	C119.461792,59.010746 119.853233,59.140903 120.180801,59.629478 
z"/>
<path fill="#266262" opacity="1.000000" stroke="none" 
	d="
M139.643005,58.929176 
	C139.746857,59.328709 139.504791,59.757153 138.845856,60.111900 
	C138.718369,59.678162 139.007721,59.318123 139.643005,58.929176 
z"/>
<path fill="#266262" opacity="1.000000" stroke="none" 
	d="
M121.077164,60.875366 
	C120.708176,60.992241 120.378899,60.749046 120.028923,60.196030 
	C120.377777,60.095905 120.747322,60.305603 121.077164,60.875366 
z"/>
<path fill="#215E60" opacity="1.000000" stroke="none" 
	d="
M195.184692,90.993401 
	C194.922791,100.976776 190.928528,109.214081 185.843491,116.897247 
	C171.089661,139.189301 151.130875,156.211456 129.541229,172.130692 
	C106.668724,154.951340 84.827827,137.039444 70.347351,111.942146 
	C64.802223,102.331444 61.783138,91.940224 65.574821,80.824150 
	C70.027290,67.770874 79.420265,59.979897 92.928749,58.325134 
	C106.331932,56.683262 116.983315,62.306377 124.278770,73.706787 
	C126.398216,77.018784 127.798637,80.790901 129.894913,85.106010 
	C133.474335,73.431679 139.808929,64.605904 151.052399,60.233074 
	C157.431000,57.752293 163.982559,57.286346 170.660736,59.040699 
	C185.093979,62.832310 194.412170,74.775978 195.184692,90.993401 
z"/>
</svg>