<svg xmlns="http://www.w3.org/2000/svg" xmlns:xlink="http://www.w3.org/1999/xlink" width="1366" zoomAndPan="magnify" viewBox="0 0 1024.5 345" height="460" preserveAspectRatio="xMidYMid meet" version="1.0"><defs><filter x="0%" y="0%" width="100%" height="100%" id="619f1d2c48"><feColorMatrix values="0 0 0 0 1 0 0 0 0 1 0 0 0 0 1 0 0 0 1 0" color-interpolation-filters="sRGB"/></filter><filter x="0%" y="0%" width="100%" height="100%" id="392d42dca1"><feColorMatrix values="0 0 0 0 1 0 0 0 0 1 0 0 0 0 1 0 0 0 1 0" color-interpolation-filters="sRGB"/></filter><filter x="0%" y="0%" width="100%" height="100%" id="45c2bef9c9"><feColorMatrix values="0 0 0 0 1 0 0 0 0 1 0 0 0 0 1 0 0 0 1 0" color-interpolation-filters="sRGB"/></filter><filter x="0%" y="0%" width="100%" height="100%" id="cf99d0044b"><feColorMatrix values="0 0 0 0 1 0 0 0 0 1 0 0 0 0 1 0 0 0 1 0" color-interpolation-filters="sRGB"/></filter><clipPath id="a792fc4069"><path d="M 0 0 L 344.398438 0 L 344.398438 345 L 0 345 Z M 0 0 " clip-rule="nonzero"/></clipPath><clipPath id="2e2c15fe78"><path d="M 0 0 L 344.398438 0 L 344.398438 344.25 L 0 344.25 Z M 0 0 " clip-rule="nonzero"/></clipPath><clipPath id="17a70117fe"><path d="M 0 0 L 344.398438 0 L 344.398438 344.25 L 0 344.25 Z M 0 0 " clip-rule="nonzero"/></clipPath><clipPath id="db14e41a5a"><path d="M 0 0 L 344.398438 0 L 344.398438 344.25 L 0 344.25 Z M 0 0 " clip-rule="nonzero"/></clipPath></defs><g clip-path="url(#a792fc4069)"><g clip-path="url(#2e2c15fe78)"><image xlink:href="" width="346" height="346" x="0" y="0" preserveAspectRatio="none" style="image-rendering: optimizeQuality" filter="url(#619f1d2c48)"/></g></g><g clip-path="url(#a792fc4069)"><g clip-path="url(#17a70117fe)"><image xlink:href="" width="346" height="346" x="0" y="0" preserveAspectRatio="none" style="image-rendering: optimizeQuality" filter="url(#392d42dca1)"/></g></g><g clip-path="url(#a792fc4069)"><g clip-path="url(#db14e41a5a)"><image xlink:href="" width="346" height="346" x="0" y="0" preserveAspectRatio="none" style="image-rendering: optimizeQuality" filter="url(#45c2bef9c9)"/></g></g><g fill="#3c3674" fill-opacity="1"><g transform="translate(394.218506, 215.603963)"><g><path d="M 65.890625 0 C 64.261719 -2.207031 63.449219 -6.160156 63.449219 -10.808594 L 63.449219 -42.53125 C 63.449219 -54.386719 54.734375 -61.359375 35.210938 -61.359375 C 15.105469 -61.359375 5.925781 -54.152344 4.878906 -40.207031 L 26.03125 -40.207031 C 26.613281 -45.320312 29.050781 -46.597656 34.980469 -46.597656 C 41.136719 -46.597656 42.53125 -44.507812 42.53125 -41.835938 C 42.53125 -38.582031 40.207031 -37.304688 35.328125 -36.839844 L 25.683594 -36.023438 C 8.132812 -34.515625 1.742188 -28.007812 1.742188 -17.316406 C 1.742188 -5.113281 11.386719 1.394531 23.824219 1.394531 C 32.769531 1.394531 39.164062 -1.511719 42.878906 -6.160156 C 42.996094 -3.835938 43.695312 -1.511719 44.390625 0 Z M 31.144531 -12.316406 C 26.378906 -12.316406 23.472656 -14.527344 23.472656 -18.128906 C 23.472656 -21.730469 25.796875 -23.589844 30.332031 -24.054688 L 37.1875 -24.753906 C 39.859375 -25.101562 41.488281 -25.683594 42.53125 -27.078125 L 42.53125 -23.589844 C 42.53125 -15.105469 37.417969 -12.316406 31.144531 -12.316406 Z M 31.144531 -12.316406 "/></g></g></g><g fill="#3c3674" fill-opacity="1"><g transform="translate(453.133988, 215.603963)"><g><path d="M 41.71875 -60.894531 C 33.003906 -60.894531 27.65625 -56.59375 25.566406 -48.109375 L 25.566406 -59.964844 L 4.648438 -59.964844 L 4.648438 0 L 26.03125 0 L 26.03125 -25.566406 C 26.03125 -36.722656 31.027344 -41.371094 40.441406 -41.371094 L 46.019531 -41.371094 L 46.019531 -60.542969 C 44.738281 -60.777344 43.34375 -60.894531 41.71875 -60.894531 Z M 41.71875 -60.894531 "/></g></g></g><g fill="#b9b9c3" fill-opacity="1"><g transform="translate(544.812287, 215.603963)"><g><path d="M 65.890625 0 C 64.261719 -2.207031 63.449219 -6.160156 63.449219 -10.808594 L 63.449219 -42.53125 C 63.449219 -54.386719 54.734375 -61.359375 35.210938 -61.359375 C 15.105469 -61.359375 5.925781 -54.152344 4.878906 -40.207031 L 26.03125 -40.207031 C 26.613281 -45.320312 29.050781 -46.597656 34.980469 -46.597656 C 41.136719 -46.597656 42.53125 -44.507812 42.53125 -41.835938 C 42.53125 -38.582031 40.207031 -37.304688 35.328125 -36.839844 L 25.683594 -36.023438 C 8.132812 -34.515625 1.742188 -28.007812 1.742188 -17.316406 C 1.742188 -5.113281 11.386719 1.394531 23.824219 1.394531 C 32.769531 1.394531 39.164062 -1.511719 42.878906 -6.160156 C 42.996094 -3.835938 43.695312 -1.511719 44.390625 0 Z M 31.144531 -12.316406 C 26.378906 -12.316406 23.472656 -14.527344 23.472656 -18.128906 C 23.472656 -21.730469 25.796875 -23.589844 30.332031 -24.054688 L 37.1875 -24.753906 C 39.859375 -25.101562 41.488281 -25.683594 42.53125 -27.078125 L 42.53125 -23.589844 C 42.53125 -15.105469 37.417969 -12.316406 31.144531 -12.316406 Z M 31.144531 -12.316406 "/></g></g></g><g fill="#b9b9c3" fill-opacity="1"><g transform="translate(603.727791, 215.603963)"><g/></g></g><g fill="#253238" fill-opacity="1"><g transform="translate(624.533886, 215.603963)"><g><path d="M 56.011719 -7.554688 C 53.804688 -7.554688 52.757812 -8.597656 52.757812 -10.457031 L 52.757812 -43.925781 C 52.757812 -54.035156 46.832031 -61.359375 30.214844 -61.359375 C 12.667969 -61.359375 6.507812 -53.105469 5.808594 -41.488281 L 15.105469 -41.488281 C 15.6875 -50.433594 19.988281 -53.339844 30.214844 -53.339844 C 40.441406 -53.339844 43.695312 -50.203125 43.695312 -43.925781 C 43.695312 -38.582031 40.324219 -36.375 34.28125 -35.675781 L 25.683594 -34.746094 C 9.179688 -33.003906 3.484375 -25.566406 3.484375 -16.152344 C 3.484375 -4.878906 11.621094 1.394531 24.636719 1.394531 C 33.234375 1.394531 39.976562 -1.859375 44.160156 -8.25 C 44.625 -2.554688 47.644531 0.347656 54.269531 0.347656 C 56.011719 0.347656 57.871094 0.230469 59.382812 0 L 59.382812 -7.554688 Z M 25.101562 -6.507812 C 16.851562 -6.507812 13.132812 -10.457031 13.132812 -16.386719 C 13.132812 -22.195312 16.152344 -25.914062 27.078125 -27.191406 L 35.792969 -28.238281 C 39.277344 -28.585938 41.835938 -29.402344 43.695312 -30.796875 L 43.695312 -23.707031 C 43.695312 -11.851562 34.050781 -6.507812 25.101562 -6.507812 Z M 25.101562 -6.507812 "/></g></g></g><g fill="#253238" fill-opacity="1"><g transform="translate(676.941885, 215.603963)"><g><path d="M 34.628906 -61.359375 C 26.261719 -61.359375 19.753906 -57.058594 15.804688 -51.015625 L 15.804688 -59.964844 L 6.972656 -59.964844 L 6.972656 0 L 16.269531 0 L 16.269531 -33.933594 C 16.269531 -47.179688 24.984375 -52.992188 32.769531 -52.992188 C 41.371094 -52.992188 46.484375 -48.921875 46.484375 -39.628906 L 46.484375 0 L 55.78125 0 L 55.78125 -40.558594 C 55.78125 -53.804688 47.992188 -61.359375 34.628906 -61.359375 Z M 34.628906 -61.359375 "/></g></g></g><g fill="#253238" fill-opacity="1"><g transform="translate(731.557779, 215.603963)"><g><path d="M 36.375 -84.601562 L 26.378906 -68.097656 L 34.628906 -68.097656 L 48.921875 -84.601562 Z M 56.011719 -7.554688 C 53.804688 -7.554688 52.757812 -8.597656 52.757812 -10.457031 L 52.757812 -43.925781 C 52.757812 -54.035156 46.832031 -61.359375 30.214844 -61.359375 C 12.667969 -61.359375 6.507812 -53.105469 5.808594 -41.488281 L 15.105469 -41.488281 C 15.6875 -50.433594 19.988281 -53.339844 30.214844 -53.339844 C 40.441406 -53.339844 43.695312 -50.203125 43.695312 -43.925781 C 43.695312 -38.582031 40.324219 -36.375 34.28125 -35.675781 L 25.683594 -34.746094 C 9.179688 -33.003906 3.484375 -25.566406 3.484375 -16.152344 C 3.484375 -4.878906 11.621094 1.394531 24.636719 1.394531 C 33.234375 1.394531 39.976562 -1.859375 44.160156 -8.25 C 44.625 -2.554688 47.644531 0.347656 54.269531 0.347656 C 56.011719 0.347656 57.871094 0.230469 59.382812 0 L 59.382812 -7.554688 Z M 25.101562 -6.507812 C 16.851562 -6.507812 13.132812 -10.457031 13.132812 -16.386719 C 13.132812 -22.195312 16.152344 -25.914062 27.078125 -27.191406 L 35.792969 -28.238281 C 39.277344 -28.585938 41.835938 -29.402344 43.695312 -30.796875 L 43.695312 -23.707031 C 43.695312 -11.851562 34.050781 -6.507812 25.101562 -6.507812 Z M 25.101562 -6.507812 "/></g></g></g><g fill="#253238" fill-opacity="1"><g transform="translate(783.384736, 215.603963)"><g><path d="M 16.269531 0 L 16.269531 -82.742188 L 6.972656 -82.742188 L 6.972656 0 Z M 16.269531 0 "/></g></g></g><g fill="#253238" fill-opacity="1"><g transform="translate(799.652995, 215.603963)"><g><path d="M 16.5 -68.097656 L 16.5 -79.488281 L 6.507812 -79.488281 L 6.507812 -68.097656 Z M 16.269531 0 L 16.269531 -59.964844 L 6.972656 -59.964844 L 6.972656 0 Z M 16.269531 0 "/></g></g></g><g fill="#253238" fill-opacity="1"><g transform="translate(814.759171, 215.603963)"><g><path d="M 28.121094 1.394531 C 42.878906 1.394531 51.945312 -5.113281 51.945312 -16.5 C 51.945312 -26.261719 46.019531 -31.261719 31.261719 -34.164062 L 25.914062 -35.210938 C 18.246094 -36.722656 13.828125 -38.8125 13.828125 -44.507812 C 13.828125 -50.085938 18.359375 -53.339844 26.378906 -53.339844 C 35.558594 -53.339844 41.023438 -50.78125 41.488281 -41.488281 L 50.78125 -41.488281 C 50.550781 -54.269531 42.417969 -61.359375 26.378906 -61.359375 C 12.667969 -61.359375 4.53125 -54.617188 4.53125 -44.390625 C 4.53125 -35.09375 10.226562 -29.167969 23.242188 -26.726562 L 28.820312 -25.683594 C 39.277344 -23.707031 42.53125 -21.265625 42.53125 -15.921875 C 42.53125 -9.992188 38.234375 -6.625 28.121094 -6.625 C 17.546875 -6.625 13.132812 -9.992188 12.085938 -19.058594 L 2.671875 -19.058594 C 3.601562 -4.996094 12.898438 1.394531 28.121094 1.394531 Z M 28.121094 1.394531 "/></g></g></g><g fill="#253238" fill-opacity="1"><g transform="translate(860.892095, 215.603963)"><g><path d="M 31.957031 1.394531 C 46.25 1.394531 54.851562 -6.972656 57.753906 -18.246094 L 48.109375 -18.246094 C 46.019531 -11.503906 40.671875 -7.089844 32.191406 -7.089844 C 21.730469 -7.089844 14.640625 -13.246094 13.710938 -26.726562 L 59.265625 -26.726562 L 59.265625 -29.980469 C 59.265625 -47.179688 49.621094 -61.359375 31.726562 -61.359375 C 15.105469 -61.359375 4.066406 -48.808594 4.066406 -29.980469 C 4.066406 -10.574219 15.570312 1.394531 31.957031 1.394531 Z M 13.945312 -35.09375 C 15.457031 -46.949219 22.3125 -52.875 31.726562 -52.875 C 42.417969 -52.875 48.34375 -44.972656 49.273438 -35.09375 Z M 13.945312 -35.09375 "/></g></g></g><g fill="#253238" fill-opacity="1"><g transform="translate(915.507978, 215.603963)"><g><path d="M 28.121094 1.394531 C 42.878906 1.394531 51.945312 -5.113281 51.945312 -16.5 C 51.945312 -26.261719 46.019531 -31.261719 31.261719 -34.164062 L 25.914062 -35.210938 C 18.246094 -36.722656 13.828125 -38.8125 13.828125 -44.507812 C 13.828125 -50.085938 18.359375 -53.339844 26.378906 -53.339844 C 35.558594 -53.339844 41.023438 -50.78125 41.488281 -41.488281 L 50.78125 -41.488281 C 50.550781 -54.269531 42.417969 -61.359375 26.378906 -61.359375 C 12.667969 -61.359375 4.53125 -54.617188 4.53125 -44.390625 C 4.53125 -35.09375 10.226562 -29.167969 23.242188 -26.726562 L 28.820312 -25.683594 C 39.277344 -23.707031 42.53125 -21.265625 42.53125 -15.921875 C 42.53125 -9.992188 38.234375 -6.625 28.121094 -6.625 C 17.546875 -6.625 13.132812 -9.992188 12.085938 -19.058594 L 2.671875 -19.058594 C 3.601562 -4.996094 12.898438 1.394531 28.121094 1.394531 Z M 28.121094 1.394531 "/></g></g></g></svg>